<?xml version="1.0" encoding="UTF-8"?>
<svg version="1.1" viewBox="0 0 840 1280" width="840" height="1280" xmlns="http://www.w3.org/2000/svg">
<path transform="translate(0)" d="m0 0h840v1280h-840z" fill="#888F8E"/>
<path transform="translate(357,264)" d="m0 0h25l14 1 1 1h9l8 1 1 2 13 2v2l5 1 10 3-1 2h3v2l5 1 3 2 13 1 4 3 13 4 2 3 3 1v2h2v2h2v2l5 2 2 5 3 3h-4v-2h-5l-2-4-8-5v-2h-2v2l-2 2 4 3 1-2v3l4 2 8 5 4 1 4 4v3l3 1v2l4 2 5 5 7 8 4 9v12l1 11 3 9h2l-1 3 2 9v3l4 1v2l-2 1 1 3-1 5h-2l2 10-1 4-1 5h-2l-1 3-5-2v-2h-2l1-3h1v-2h-2l-1-2-1 3-2-4 2 5-1 6-2-2-3-6-1 5h3v2h-2l-1 3-2-6-1 6-2-1 1-7 3-9 1 4 2-1-2-10-2 4-1-4-7 2-1-4-4-8v-3l-2 2-3-11-3-1-4-3-1-4h-3l-2-2 2-7-3 1-4-2v-3l-2-1 5-2 1-2-10-1 1-5 5 1v-2h-8l-4-3h-3l-3-3v-2l-3-1 2-1 13 6 1 2h4l1-2h3v3l4 1-1-3-3-2v-2l-3-2v-2h-3l-2-1v-2l2-1-4-2-3-1 2-2-6-3-1 2-1-3-2-1-6-2-1 2v-3l-6 1-2-3 1-1-3-2 4-1-3-1-1-3-5-2-1-5 3-1-2-4-4-2-6-2-6-4-7-2 9 5 1 2-7-1v-2l-14-5-12-3 1-2h6l-5-2-7 2-10-3h-3v-2h-2l-1 4h-5l-1 2 4 3v2l5-2 10 1 11 5 8 1 1 2h-12l-1-1-6 1h-9l9 2h4l1-2 3 1h14v2h-5l11 5-2 2 8 4 2 4 5 3v1l-9-1v2h8l5 2 6 2 5 3-4 1-5-2-4-1v2h2v5l-3-1v-3l-3 1-7-4-7-1 5 2v3l7 2 5 3 4 1-3 3 5 4 5 2 3 2v2l4 2 3 2v2l4 2 6 2 2 3h-2l-1 2-8-7-5 1-2-1v5h-4v-4h-2v2l-5-2-2-2 4-1-8-4-2-4-18-6v-1h6 1v-3l-10-1v-1h10l2 1-4-4-1-3-8-4v-2l-7-1v-3l4-1 1-1-6-1-1 3-7-3-4 1 3 2 8 1-4 1 2 3h10l-2 2 10 4-3 1-6-2v2l6 1-4 1-6-1-1-3h-3l2 2-4 1 4 3h-6l5 1v2h5l3 4h-7l-2 1-3 1-2 1 7 1 10 3v1l-10 1-4-1-4 2 3 1-11 2 3 3-9-2-10-2h-6v-2l-3 2-9 3 3 2-9 4h-3l1 3h-10v2l-6 2-4 1-5 4-2 1 1 3-20 5-7 1v3l-4 2-6 11-4 5-2 9-3 6-2 7-3 5-2 7v5l1 4 6 2 11 2 7-1v2l6-2v2h-2v2h-2v2l6-3h2v2l6-3 10-1 1 2h9l11 4v2h5l1 2-5 1-8-2 1-2-2 2h-4l-1 4-15 1v2l2 1-11 1 1 3 2 2h-3v3l16-1-1 3 14 1 1 1 11 2 4 2v2l5 2-1-7 9 2 1 2 5 2 3 5 1 8v25l2 5v12l-3 6h-2l1 13 2 8h2l2 7 2 1v3h-5l-1 5-3 5-8 4-3 3-8 2v3l-4-1-6 1v2l-5-2-2-6 1-3 7-6 1-7 2-1-5-10 1-8 5-12 2-23h2v-7h-4l2-5 2-3-1-1v-8l4-7-7-1-1-7-6-3-1 7-3 4-5 1 1 3-9-3-5-5-1-4 1-3-7 4h-2l1 4-3 3 4 2-1 1 2 1v2h-5l-1 5h-2v2h-7l-5-5-1-3-6 1-5-2 1-5-7 1-2 3-1 3 2 4 1 8v12l4 11v6l3 5 4 2-1 4 1 6-2 3 4 2 2 4v12l2 1v2l4 4v12h7l7-1 1 4 3-1 1 1v5l-1 5h-2l-1 4h-2l-2 6-1 1v9l4 6 7 2 4 4 3 5 5 2h2l6 9v3h-2l2 7h2v3l4 2 1 2-1 4 2 1 1 3 5 2v2h2v4l3 1 1 5 5 3h3l3 7 7-1v2l8-2 1-2 6 2h2l1-2 3-1 2 1v2l2 1-1 3h2v-2l4-1v2h2l1-3 4-1 2-5 4 2v-2h3v2l5-1-1-4 2-5 2 4 2-3 3 3 1 2 1-6 4-1-1 6-2 2-2 5-8 6-6 3-4 4-10 4-17 2-18-1h-10l-2 3v-2h-7l-3-1-1 6-1 2h-3l-1 5-2 3-2 7-3 1v8l-6 8h-5v11l-2 3-1 13-1 7v6l-1 2v8 3l-3 5h-9l-1-2v2l3 2 12 1 1 1h32l11-2 12-4 8-3 14-5 4-3 9-3 29-15 19-11 13-9h2v-2l12-9 5-5 7-6 5-6h2l2-4h2l2-4 8-8 4-2 5-6 5-1h7l5 7 3 5v2l6 2 14 4 2 1v2l5 2 13 9 8 7 6 3v2l4 1 21 13 11 9 16 11 10 7 9 8 8 6 13 8 11 8 13 13 12 16 8 10v2h2l9 15 6 11 9 19 5 14 4 22 1 12 4 13 3 12 1 10 4 14 1 5v10l-3 27-3 17-7 21-3 19-4 57-4 29-1 13 3 26 1 14 3 10 1 6-1 4h-755v-508l5 2 6 3 5 6 4 7 4 6 3 12 2 4 2 9 1 1 1 10 2 1-1 3 4-4h2l2-4 8-7 12-12 11-9 13-8 16-9 21-12 13-5 21-4 17-3 27-8 29-10 5-2 10-2 15-6 8-7 3-8-1-17-2-16-4-9-3-1-4-5-1-3-3-2 1-1-2-1-2-5-2-1-4-7-2-4-4-9-1-4-2-1-4-13-3-9-1-11-1-5-4-1-5-2-7-8-2-8v-12l-7-19-6-20-4-10v-17l2-17 6-5 3-1v-2h-1v-7l-2-7 1-5-2-1 1-2-2-1 1-4-2-1-1-12 2-9h-2l1-5 1-4-2-1 2-7-2-1 3-9 3-8 3-15 3-9 6-9 5-8-1-7 3-5 7-9v-1l-1-4 6-8 8-7h2l2-5h2v-2l2-2v-2l18-8 4-3 11-3 1-3 7-2 19-3 12-3 24-3z" fill="#131413"/>
<path transform="translate(0)" d="m0 0h242l-2 9-3 3-12 1-7 4-3 3h-5l-3-2-6 1-6 4-5 2-5 5-4 2-11-1-2 5-10 7-8 4-4 8-5 2-2 4h-3l-1-3-5 1 1 4 4 4 1 13-1 14-3 7-2 8 5 5v5l-6 3h-2l3 7 1 4-4 9-3 4v18l-2 3-5 2-3 9-1 1-2 18-2 3-1 44-1 10-2 4-1 6-1 20-5 15 2 4 2 1 2 16v13l3 9 4 3v8l5 3 3 6 2 6 2 3 2 12 3 7 3 11 1 3 1 11 2 4 1 19 3 11 3 8v7l-1 5 2 7 2 15 3 6 1 30 2 5v8l-2 5-1 29-3 6-3 13 3 6 1 23 7 5 1 12 2 4 2 18 5 4 1 3 1 35 2 5 1 9 4 7v30l-2 1 2 2-7 2 12-2 14-4 3 1-24 7-34 6-13 5-16 9-18 10-16 10-14 12-15 15-8 7-4 3 2-5h-2l-1-11-2-4-2-8-2-4-3-12-6-8-2-6-3-1-1-2-10-5z" fill="#595D5C"/>
<path transform="translate(445,365)" d="m0 0 2 1-1 2 4-1 5 3 4 2v2l6 1 2 4 3-1 1-2 2 2v4h-3l4 3 6 1 2 1 2 7-1 2h2v2l2 1v5l5 1 1 3-1 2 4 2h-3l1 4h2l3 15h3l-1 4 2 6h1l2 7 2 10 1 10-2 23v17l1 4-2 32-7 33-1 4v5l-1 2-1 13-2 7-1 5-3 8h-2v4h-2l-1 5-2 2h3v2h-2l1 3-3 4h-2l-1 4-3 4-4-10v6l-3 3h-2l-1 2 1-5-3 7-4 4-1 2h-2v5h2l-1 4-2 4-5 1-2 4h-2l1 2h2l-1 3-5 1 2-1-1-2-3 1-2 4-1-3-2 3 1-9 1-2h-3v-3l-4-1 1 3-1 6h-2l-1 3-1-2-3 1 1 3-2 1-2 4-1-1-1 5-3 3-3-2-5 1 1 4-2-1-3 5-1-4-1-1h-2l-2 4-4 1-1 3h-2l-1 2-2-4-3 1-1 2-3 1v-3l-5 1h-3l-2-5h-2l-1 3-2 2-2 4h-10l-3-4-2-1 1-7h-2v3l-2-1-1-11-2-9-3-1 1-5 3-1 3-5 4-1 11 2 1-2 5-3h3l1-5 6-2-7-2-2-3-9-2-7-3-4-3-2-4-4-3-1-2 4-4 6-1-3-2v-2l4-1h10v5h2v-5l3-4v-2h-3v3l-3-3-4-2v-3h-12l-2-5 5-5 3-1v-2l5-3 4-2 4-8 2-8-3-4-2-9 2-12 2-8v-13l-1-5-1-26-3-16-1-9-5-4v-3h-3l-1-3-2-1-1-3-2 2-2-6-5-1 1-2-4-1-3-2v-2l-4-1-6-3-2-3-5-3-1-5-4-1v-3l4-2 1-2h-2v-12-2l-5-13 2-11h2v-5l-3-2h3l-1-3 5 1v-2l-2-1 7-3 6 1 7-5 2 2h-2v2l6-1 1-3 15-1 4-1v2l6-1h2l2-2 8-1h10l3-1 8 2h7v2l12-4v2h2v-2l7 1h1l4 1v2h3v-2h2v2l4-3h2z" fill="#EFC19F"/>
<path transform="translate(79)" d="m0 0h163l-2 9-3 3-12 1-7 4-3 3h-5l-3-2-6 1-6 4-5 2-5 5-4 2-11-1-2 5-10 7-8 4-4 8-5 2-2 4h-3l-1-3-5 1 1 4 4 4 1 13-1 14-3 7-2 8 5 5v5l-6 3h-2l3 7 1 4-4 9-3 4v18l-2 3-5 2-3 9-1 1-2 18-2 3-1 44-1 10-2 4-1 6-1 20-5 15 2 4 2 1 2 16v13l3 9 4 3v8l5 3 3 6 2 6 2 3 2 12 3 7 3 11 1 3 1 11 2 4 1 19 3 11 3 8v7l-1 5 2 7 2 15 3 6 1 30 2 5v8l-2 5-1 29-3 6-3 13 3 6 1 23 7 5 1 12 2 4 2 18 5 4 1 3 1 35 2 5 1 9 4 7v30l-2 1 2 2-7 2 12-2 14-4 3 1-24 7-34 6-16 4 5-5 5-4-2-1v-9l2-8v-8l-1-9-1-7-2-9-2-5v-5l1-1-1-18-2-4-1-12-4-5-1-11-4-9-3-4-1-19-2-4v-19l2-10v-22l3-4 1-23 1-3 1-21-1-21-4-6v-9l-3-4-3-10-3-7v-16l-3-3v-10h-2l-2-3-3-9-1-14-3-4-2-12-5-2-5-5-1-8-9-6-2-6-6-5-4-5 1-10-1-2h-5l-1-4 1-3h3v-5l-5-3v-6l1-2v-7l-1-2v-13l1-8v-14l3-5-1-6-4-4 3-9-1-3-4-2-4-9-1-4 2-4v-10l-2-6v-13l4-4-1-4-3-3 1-5 3-3-1-13 2-15 3-3 4-2 2-5 4-3 3-13-5-2v-4l6 1 1-3 1-15 4-4-1-4-3-3 1-5 3-3-1-11 6-5v-4l-4-3-2-8-1-5 2-3-1-12 3-3 5-2 3-6 3-7z" fill="#696D6C"/>
<path transform="translate(371,281)" d="m0 0 5 1 12 3h4l1-2 6 2-1 2h-6l5 2 8 2 12 4 5 3-4-3-8-4 3-1 9 4 9 5 4 1 5 4-2 5-1 3 7 1-1 4 4 1-2 2 2 1-1 2 1 1h5l5 1 3 2 2 2h3l9 3v1l-4 1 4 2 1 2h-3l2 1v2l6-2-1 2h-2l1 2 5 1-3 1 4 4v3l3 1-7-1-2-2h2v-2h-3l-1 3-7-1v-2l-10-4 2 4h3l5 3 8 1v2l-4 1-1 2 9 1 1 4-5 1v4l7 1-1 7 1-1 2 3 2-1 1 4 6 5 4 8 2 1 1 6 2 3 2-1-1 7 4-1 1-2h4l2 1 2 13-1-2h-3l-3 7v5l1-6 4 4h2v-2h-3v-6l4 4 1 3 1-4-2-5 1-4 2 5 1-3 1 5h2l2 4-3-1-1 2h2v2l5 1 1-2h3l-1 6h-3l2 7-1 2h-2l1 6-2 9v7l-2 8h-2l2 5-3 8h-3v4h-2l-1 6h-2l-1 8-2 11-2 17-1 7v9l-2 10-1 14-2 11-1 11-2 3-2 14-1 1v7h-2l-3 9-2 13-3 2-3 5-1 8-5 5-2 4h-2v3l-6 5-1 2-5 3-3 3-5 1v2l-5 1-1 4-10 6h-2v2l-8 4-4 4h-2v2h-2l-3 6-3 1-1 3-5 3-7 2 1-3 9-5 5-4 2-5 3-7h-2l-3 9-2-4v-2h-2l-3 3-1-2-1 6-5 1v-2h-3v2h-2l-1 4-1-3-3 3-3 1-1 2-6-1v2h-2l-1 2 1-5-1-3-4-1-1 3-4 1-5-2-5 3-2 2v-2l-5-1-5 1-2-5v-3l-4 1-2-1v-2l-3-1-1-5-2-1v-4h-2v-2l-3 1-2-2-2-4-2-7-3-2v-3h-2l-2-7h2l-2-5-4-5v-2l-4 1-6-5-3-5-4-3-1 2v-2l-4-1-4-6v-9l4-7 2-1 2-4 1-9h-3l-1-3-11 1-3-1-1-11-1-3-3-2-1-3-1-15-2-1-3-2 1-6-1-5 1-2-4-2-1-3-3-2h2l-3-13-2-4v-17l-3-5v-5l6-5h5v4l-1 2 11 1 6 7 7 1v-2h2v-6l6 1v-2l-3-1 1-1-4-2 3-1v-6l6-4h3l1 7 1 3 9 3 2 1v-2l5-2 3-6 1-4 4 1 3 2v7l7 1-1 4-2 3-1 8 2 1-4 6v2l4-1v6l-1 2h-2v16l-2 10-5 12v5l5 10-3 1v7l-6 5-2 4 1 6 5 2v-2l7-2 3 2v-3l-2-1 10-2 4-4 7-2 1-4 3-6h5l-4-6v-5h-2l-3-8v-13h2l2-6v-12l-2-5v-25l-1-9-3-4-5-2v-2l-6-1-3-1 2 7h-3l-3-2v-2l-7-2-8-1-1-1-17-1 2-3h-14l-1-5 1-3 9-2v-2l3-1h12l1-4h4l1-3 3 1-1 1 8 2 2-1-5-1v-2l-7-1-4-2h-9l-1-3-16 4v-2l-6 3h-2v-2h2v-2h2v-2l-3 2h-3v-2l-4 2-14-2-6-3-2-4 1-7 2-7 3-4 2-7 3-9 2-7 5-6 5-9 4-1-1-3 1-1 15-3 8-2h4v-2l-4-1 8-4 2-3h6l4-1v-2l9-1v-2l11-4-3-3 10-3 3-1v2l6-1 10 2 8 2-4-3 10-2 1-2 6-1 4 1 5-1-16-4 2-3h5v-1h6l-4-2-3-1-4-2-2-2h5l-2-2 4-1-5-1 4-2 4 1v3h8l-4-1v-2l8 1-11-4v-1h-8v-4l-8-2-2-3 7-1 7 3 1-2 6 1-1 2-4 2 7 2v2l5 2 4 2v3l4 2v2h-5l3 1v3l2 1h-3-4l16 5 2 5 10 3 1 2h-6l6 4v-2h2v4h4l-1-3 1-2h5 3l7 6 2-2-4-2-7-4v-2l-4-2-7-6-6-2-5-5 3-2-6-2-8-4v-3l-5-1-1-2 8 1 8 4h2l1 3 2 1-1-3 1-2h-2v-2h7l2 2h3l-8-4-6-1-1-1-8-1v-2h8l-5-3-2-4-7-3-1-2 2-1-13-5 4-1 4 1v-2l-15 1h-2v1l-7-1-10-2 4-1h10l6-1v1h10l-8-1-11-5-10-1-5 1-2-3-5-1 3-3 3-1h3zm74 84v2l-6 3v-2h-2v2h-3v-2l-4-1-1 1-4-1-3-1v2h-2v-2l-12 4v-2h-8l-8-2-6 1h-10l-5 2-2 2-2-1-5 1v-2l-4 1-15 1-1 3-6 1v-2l2-1-2-1-8 5-5-1-7 3 2 1v2l-5-1 1 3-3 1 3 1v5h-2l-2 11 5 13v2 12h2l-2 3-3 1v3l4 1 2 6 4 2 3 4 5 2 4 1v2l5 3 1 1 6 3 1 5 2-2 1 3 2 1 1 3h3l1 4 4 3 1 9 3 17v9l1 18 1 9-1 13-3 11v6l4 9 1 3-5 13-3 3-5 2-2 1v2l-4 2-4 5 2 4h12l1 4 4 2 2 2v-3h3l-2 5-1 1v5h-2v-5h-10l-4 1 1 3 2 1-7 2-3 3 1 2 5 4 3 5 5 3 11 3h3l1 3 7 2-7 3v4l-4 1-4 2-1 2-12-2-4 2-3 5h-2l-1 5 3 1 2 9v6l1 5 2 1v-3h2l-1 7 3 1 2 4h10l3-6 2-1v-2h2l2 5h6l2-1 1 3 3-1v-2l3-1 3 4v-2l3-1 1-3h3l3-4 2-1v6l3-3 1-2 2 1-1-4 5-1 4 2 2-3 1-5 2 1 1-4 2-2v-2l2-1 2 2v-3l2-1 1-6v-1h3v3h3l-2 5v6l2-2 1 2 2-4 3-1 1 2-2 1 5-1 1-3h-2l-1-2h2l3-5h5l2-5v-3h-2v-5h2l4-6 2-1 2-6-1 5 1-2 4-1 1-2v-6l4 10 4-5v-3l3-1 2-4-1-2h2l-1-2-1-1 2-2v-4l2-1v-3h2l3-8 1-7 2-5 1-14 1-1v-7l3-12 5-23 2-35-1-2v-16l2-28-2-7-3-15-2-1-1-6 1-3-2-1-1 1-3-15h-2l-1-4 3-1-4-1 1-4-4-2h-2v-6h-2v-2h-2l1-3-2-6-6-2-5-2-1-1h3l-1-5-2-1v2l-3 1-2-4-6-1-2-4-9-3-2 1 1-3z" fill="#674633"/>
<path transform="translate(526)" d="m0 0h314v255l-3-1v-7l-3-5-1-2v-7l2-3v-6l-3-1v-15l-4-9v-15l-2-5v-10l-2-9-1-7-2-6-5 1-5 4-3 7-7 1-1 7h-3l-3-8-6-5-3 2-1 4-4-1-3-9-2-7-5-5-6-4-4-11-10-2-8-1-3-5-5-3-1-9-7 1-3-5-3-2h-7l-5 1-4-5-3-8-7-2v-4l3-1-5-6-2 4-2 3-3-1-1-4-10-2-2-2-2-6h-12l-5-7-5-1v-5l-8-2-8-3-2-7-6 2-5-1-10-6-9-4-8-3-12-2-4-3v-2l-7-1-5-2-8-1-2-2-3-1-12-1-3-3v-2l-8-1z" fill="#6A6E6D"/>
<path transform="translate(445,365)" d="m0 0 2 1-1 2 4-1 5 3 4 2v2l6 1 2 4 3-1 1-2 2 2v4h-3l4 3 6 1 2 1 2 7-1 2h2v2l2 1v5l5 1 1 3-1 2 4 2h-3l1 4h2l3 15h3l-1 4 2 6h1l2 7 2 10 1 10-2 23v17l1 4-2 32-7 33-1 4v5l-1 2-1 13-2 7-1 5-3 8h-2v4h-2l-1 5-2 2h3v2h-2l1 3-3 4h-2l-1 4-3 4-4-10v6l-3 3h-2l-1 2 1-5-3 7-4 4-1 2h-2v5h2l-1 4-2 4-5 1-2 4h-2l1 2h2l-1 3-5 1 2-1-1-2-3 1-2 4-1-3-2 3 1-9 1-2h-3v-3l-4-1 1 3-1 6h-2l-1 3-1-2-3 1 1 3-2 1-2 4-1-1-1 5-3 3-3-2-5 1 1 4-2-1-3 5-1-4-1-1h-2l-2 4-4 1-1 3h-2l-1 2-2-4-3 1-1 2-3 1v-3l-5 1h-3l-2-5h-2l-1 3-2 2-2 4h-10l-3-4-2-1 1-7h-2v3l-2-1-1-11-2-9-3-1 1-5 3-1 3-5 4-1 11 2 1-2 5-3h3l1-5 6-2-7-2-2-3-9-2-7-3-4-3-2-4-4-3-1-2 4-4 6-1-3-2v-2l4-1h10v5h2v-5l3-4v-2h-3v3l-3-3-4-2v-3h-12l-2-5 5-5 3-1v-2l5-3 4-2 4-8 2-8-3-4-2-9 2-12 2-8v-13l-1-5-1-26-3-16-1-9-5-4v-3h-3l-1-3-2-1-1-3-2 2-2-6-5-1 1-2-4-1-3-2v-2l-4-1-6-3-2-3-5-3-1-5-4-1v-3l4-2 1-2h-2v-12-2l-5-13 2-11h2v-5l-3-2h3l-1-3 5 1v-2l-2-1 7-3 6 1 7-5 2 2h-2v2l6-1 1-3 15-1 4-1v2l6-1h2l2-2 8-1h10l3-1 8 2h7v2l12-4v2h2v-2l7 1h1l4 1v2h3v-2h2v2l4-3h2zm-21 14-2 2v3h2v-2l5 2h-12-4l-8-2h-5v4 2l-6-2-2-1 2-1v-2h-5l-5 2v1h5l-3 5h-3v-4l-5 1v3l-6 1-1 4 2 2 1 3-4 4h-3l1 4 2 4h2l-2 6h3l-1 5-4 6v2l-5 1 1 3h3l-2 1v4l-4-2h-2l-2-2v13l2 1 3-3 1-6 2 1-1 6-2 1v2h-2l1 2 3 2v-4h2v5l2-1 5 5h2v-3l3-1 2-4 6-1 1-2 1 4 8 2 1-2 10-2 8-1 4 2 9 1v-2l5 1h2l4 1 1-1 4 5h2v-3l4-1 8 3 5 3 4 4h5 3l1 2 5 2 4 5-1 2h3v2l-3 1v3l-1-2-5-1-1-1h-14l-15-2-1-1h-12l-6 2-1 4 16 3 7 3 9 1v2h3v2l4 4-3 1-10-4-2-4-7-4-8-2h-8l-3 2v2l13 2 8 3 1 2 7 3-1 4-11-7-3-1-1 5v2l-4 2-3 2-5 1v1h7l2-1v2l-7 1 1 5 4 1-2 1v2l-3 1-4 1-11-3h-4v-2l-6-3-6-7h-3l1-7-2-5 2-3v-9l-4-2v-2l-7-1-5 2v-2l-4 1v2h-3v3l-3 1-2 9 3 7v6h2l-1 7 1 9 2 7v7l-1 1-2 21v8l1 7 4 5 1 7 1 5 1 1h6l6-2 3 3-1 2 5 3h-2l-1 8-4-2-10 4v4l-3 1-2 4 16 1 7 1v2l12 2 3-1 1-6h7l5 4 2 5-5 1h-11v2l-3 1-3 5h-5l1 3-2-1v-4l-5 1 2 2-8-1-4 2v2h2v3h-2v-2h-2l-1-2-2 4v8h3v2h5l1 5 2 1 2 10 2 3h-7l-1 5h-2v-2l-16 1-3 2-2 5-1 4 3 1v5l2 2 4 1 9 5h8l2 1v-4h2l1 3 3-5 1-6h2l-1 4 2 2 2-6 4 3v-2l2-1-2-3 2-1-1-2 5-1 5-3v-3l2-5-2-2 1-4 2-4 1-3 4 2-2-6h2l1 5h2l1-3 2-2 1 2 3-1 1-9 1-1 7-1-2-2 1-4v-2l3-2 2 3 1-4 3 1 1-8 3-1v-7h3l2-1v2l-3 1v2l4-2 1-3 6-2 1 3 1-3h2l1-7 4-4 1-4 5-5 2-1v-4h2l1-7 4-1 3-14 2-2 3-20 1-28v-56l-2-5h-2v-3h-2l-1-4-2-4h-3v-2h-2v-2h2v-3l-5-4-2-3-5-5-3-6h-2v-2h3v-2h2l-2-6-2-5 1-6h-2v2h-2l-1-2-3-1-1-2-3 1v2h-2v-3l-5 1v-2l-9-3-4-1 1-3-2-3-2 1-6-1h-6l-4-1z" fill="#C5A58D"/>
<path transform="translate(0,368)" d="m0 0 4 1 8 10 7 12 4 12 6 7 3 4 2 9 5 9 2 8 2 3 2 10 1 2 1 9 3 5-1 35-2 5 3 3v7l-3 9-2 4v19l-3 5h-2l-1 11-2 5v33l1 5-2 3 2 16 1 3 1 14 3 10 1 1 1 28 3 5 5 10 3 13v12l2 6 1 18 1 3 1 12 3 10 2 16 2 3v7l-1 3h-2v2l-3 3-2 4-16 16-8 7-4 3 2-5h-2l-1-11-2-4-2-8-2-4-3-12-6-8-2-6-3-1-1-2-10-5z" fill="#3F4341"/>
<path transform="translate(371,281)" d="m0 0 5 1 12 3h4l1-2 6 2-1 2h-6l5 2 8 2 12 4 5 3-4-3-8-4 3-1 9 4 9 5 4 1 5 4-2 5-1 3 7 1-1 4 4 1-2 2 2 1-1 2 1 1h5l5 1 3 2 2 2h3l9 3v1l-4 1 4 2 1 2h-3l2 1v2l6-2-1 2h-2l1 2 5 1-3 1 4 4v3l3 1-7-1-2-2h2v-2h-3l-1 3-7-1v-2l-10-4 2 4h3l5 3 8 1v2l-4 1-1 2 9 1 1 4-5 1v4l7 1-1 7 1-1 2 3 2-1 1 4 6 5 4 8 2 1 1 6 2 3 2-1-1 7 4-1 1-2h4l2 1 2 13-1-2h-3l-3 7v5l1-6 4 4h2v-2h-3v-6l4 4 1 3 1-4-2-5 1-4 2 5 1-3 1 5h2l2 4-3-1-1 2h2v2l5 1 1-2h3l-1 6h-3l2 7-1 2h-2l1 6-2 9v7l-2 8h-2l2 5-3 8h-3v4h-2l-1 6h-2l-1 8-2 11-2 17-1 7v9l-2 10-1 14-2 11-1 11-2 3-2 14-1 1v7h-2l-3 9-2 13-3 2-3 5-1 8-5 5-2 4h-2v3l-6 5-1 2-5 3-3 3-5 1v2l-5 1-1 4-10 6h-2v2l-8 4-4 4h-2v2h-2l-3 6-3 1-1 3-5 3-7 2 1-3 9-5 5-4 2-5 3-7h-2l-3 9-2-4v-2h-2l-3 3-2-9 6-2 2 1 2-2 1-4 5-5-1-3 4-1h2l2-7v-3l4 2v3h3l-1 8 2-1v3l5-5 2 3 3-3h-2l-1 2v-4h2l2-5 5-1 3-7-3 1 1-6h2l2-5 2-2h1l2-7 2 2-1 2 4-1 1-8 2 1 2 5 1 2 3-6 4-4v-3l1-1-3-1 3-3 3-8h2l1-7 2-3v-5l2-5 1-14 1-1v-7l3-12 5-23 2-35-1-2v-16l2-28-2-7-2-10-2-4-2-8v-2l-2 1v-6l-2-2v-9h-2l-1-4 1-1-2-1-1-5-2 1v-2h-2l-2-8h-2l-1-9-8-1-4-2v-2h3l-2-5-5 3-1-5-6-1-4-4-1 4v-5l-8-1-1-1-4 3h-2v-2h-2v2h-3v-2l-4-1v2l-6-2-2-1v2h-2v-2l-4 3-8 1v-2l-8 1-8-2-6 1h-10l-5 2-3 2h-4l-4-1h2v-2l-4 2-15 1-1 2-6 1v-3l-8 5-5-1-5 3v2h-4l1 4-1 5h-2l-1 11 5 13 1 2h-2v12h2l-2 4h-3v3l5 1 2 6 4 2 2 3 6 2 3 2v2l5 2 3 1 1 2 2-2 3 7 2-1v4l3 1v3h3l3 5 3 2 1 9 3 17v9l1 18 1 9-1 13-3 11v6l4 9 1 3-5 13-4 4-7 2v2l-7 6 1 4h7l5 1 1 3 5 3v-3l4 2 2 5-4 1-1 5h-2v-5l-13 1 1-5-5-2-3-2h-3l-1-7h2v-4l6-5 4-2h3v-3l4-4 2-5 4-2-2-10-3-10v-7l3-7 2-8-1-1v-10l-1-6-1-25-2-10-2-8-6-5-4-5v-2l-2-1-1-1-2-4-7-4v-2l-7-1v-2l-5 1 2-1v-3h-5l1-4-6 1-2-2 1-1-4-1-1-2-8-1-3 1-3-3 1-2v-11l-1-3-4-3-1-8-2-6 1-7 6-3 4-3-1-5 2-2-2-3 15-6 10-5 3-2 9-2h6v-2h16l-1-1h-5l2-3h8l4 2 4-1 9 1 5-1 20-2-1-2 13 2-1-3 6 1-1 3 4-2 5 1 9 4v-3h3l-1-3 1-2h5 3l7 6 2-2-4-2-7-4v-2l-4-2-7-6-6-2-5-5 3-2-6-2-8-4v-3l-5-1-1-2 8 1 8 4h2l1 3 2 1-1-3 1-2h-2v-2h7l2 2h3l-8-4-6-1-1-1-8-1v-2h8l-5-3-2-4-7-3-1-2 2-1-13-5 4-1 4 1v-2l-15 1h-2v1l-7-1-10-2 4-1h10l6-1v1h10l-8-1-11-5-10-1-5 1-2-3-5-1 3-3 3-1h3zm48 77 5 1-3 1z" fill="#805C47"/>
<path transform="translate(282,468)" d="m0 0h17v2l2 1-11 1 1 3 2 2h-3v3l16-1-1 3 14 1 1 1 11 2 4 2v2l5 2-1-7 9 2 1 2 5 2 3 5 1 8v25l2 5v12l-3 6h-2l1 13 2 8h2l2 7 2 1v3h-5l-1 5-3 5-8 4-3 3-8 2v3l-4-1-6 1v2l-5-2-2-6 1-3 7-6 1-7 2-1-5-10 1-8 5-12 2-23h2v-7h-4l2-5 2-3-1-1v-8l4-7-7-1-1-7-6-3-1 7-3 4-5 1 1 3-9-3-5-5-1-4 1-3-7 4h-2l1 4-3 3 4 2-1 1 2 1v2h-5l-1 5h-2v2h-7l-5-5-1-3-6 1-5-2 1-5-7 1-2 3-1 3 2 4 1 8v12l4 11v6l3 5 4 2-1 4 1 6-2 3 4 2 2 4v12l2 1v2l4 4v12h7l7-1 1 4 3-1 1 1v5l-1 5h-2l-1 4h-2l-2 6-1 1v9l4 6 7 2 4 4 3 5 5 2h2l6 9v3h-2l2 7h2v3l4 2 1 2-1 4 2 1 1 3 5 2v2h2v4l3 1 1 5 5 3h3l3 7 7-1v2h2l1 4-3-1-3 1v-2h-3l-1 2-4-1-2-2-3-2v-2l-5 1-3-7-2-1-1-5-1-3-3 1-2-3h-2l-1 2-1-6 1-4h-3l-2-4v-3l-3 1-2-5v-3l-4-2v-3l-6-4v-2l-4-1-1-2-6-1v-2h-2l-4-5v-2l-5-4-1-7-3-5-2-9-5-5-1-4h-4l-3-10-6-4-1-8-6-8-3-8-10-5-4-11-4-16-1-7v-21l3-23 2-8h2l-1-7 4-2v-2l4 1 1 5-2 2-1 4 6-1v3 2h4l1-2 4-1 3-2 6-1-1-4 3-1 2-4 4-2h3v-2l5-1z" fill="#4B3325"/>
<path transform="translate(670)" d="m0 0h170v159h-2l-3-7-1-14-3-16-2-3v-7l2-7-3-5-1-10-3-11-4-6-3 1-5 9-6 2-4 5-5-1-5-4v-2l-5-1-1-1-11-1-1-1-1-13-4-4-6-4-9-2-4-5-5-4-7-3-6-6-4-1-3-4-6 1-7-5-3-3-8-4-5-2-3-3v-2h-11l-5-4-1-4-6-2z" fill="#5A5E5D"/>
<path transform="translate(434,371)" d="m0 0 3 1 1 4h2l1-2 3-1 1 3 2-2 7 5 3 1 2-2v5l5 1 2-1 1 4-1 2h2v-5l1 4 3-3 8 1 2 1 2 7-1 2h2v2l2 1v5l5 1 1 3-1 2 4 2h-3l1 4h2l3 15h3l-1 4 2 6h1l2 7 2 10 1 10-2 23v17l1 4-2 32-7 33-1 4v5l-1 2-1 13-2 7-1 5-3 8h-2v4h-2l-1 5-2 2h3v2h-2l1 3-3 4h-2l-1 4-3 4-4-10v6l-3 3h-2l-1 2 1-5-3 2-2-4 4-4 1-5h3l-3-2v-3l-2 1-1 3h-2v2h-2l-2 5-1 1-2 7-3 3-6 2v3l1-2h3l1-2 3 2-3 3-2 5v2l-1 3h-3l-1-4-1 4-2 7-2-3v-3-4h-2l-1 2h-4l-1-6-4 1v3h-2v-2h-2v3l2 1v3h-2l1 3-3 6-3 1 2 4-1 3h-3l-1-3-2 1-1 3-3-1v-4l1-5 8-3 2-3v-3l1-3-2-2 1-4 2-4 2-6 3 3-1-4h2l1 5h2l-1-4h2l1-9h1l1 10 2-1 1-9 2-2 4-2 1-4-1-2 4-3h2l1 3 1-3h2l2-7 2-1v-8l3 1 3-1v2l-3 3 3-2 2-4 6-2 1 3 1-2h2v-9l4-2 2-5 4-4 3-5h2l-1-4 4-4h2l2-14 2-2 3-20 1-28v-56l-1-5h-2v-3h-2l-3-6v-2h-3v-2h-2v-2h2v-3l-3-1-1-2-2 3-3-9-4-3-2-6h-2v-2h3v-2h2l-3-6-1-4-2-1h2l1-6h-2v2l-6-2-1-3-3 3h-2v-3l-5 1v-2l-8-1-3-2-3-1 1-3-1-2-2 1-6-1h-6l-4-1-4 1-1 3h2v-2l7 1-1 2h-13l-3-2-1 2-8-2h-5l1 3-1 2-9-2 1-2h2v-2l-6 2v4l-2 3-4-1v-3h-3l-1 3-6 1-1 4 3 1v2l2 2-4 2-2 3h-2l2 6 2 1-1 4-1 2 4-2v6l-5 6-1 4h-5l2 2h3l-1 2h-2v4l-4-1-2 1h-1v9l3-2 2-6 3 1-1 7h-2l-1 2-1 1 2 2 1-3h2l4 6 4 3v2h-5l-2-2h-7l1-3-7 1-4-1h-4l-1-5h-3v-2l-4 1-1-7-2-1v-3l-2-1 2-7 1 2 3-2 1-6-1-2 1-7 1-1h5l-1-2-5-2-1-4h-2l-2-4-2-1-1-9 3-6 3-1-1-3h2l1-4 4-2 1 4 6-1 2 1v2l3-2 8 1v-3l8-3 16-4 5-1 5 2 5-1 1 1 9 1 2-3h7l12 2z" fill="#B99883"/>
<path transform="translate(472,672)" d="m0 0 2 1 1 18v21l1 8 5 1 7 2v2l6-2 5 3h3l-1 5-4 2-1 3h-2l-1 3h-2l-2 5-8 7-4 5h-2v2h-2v2h-2v2l-5 4-4 4h-2v2l-7 5-5 1v2l-6 3h-2l-1 3-7 1-2 2-11 2-4 2h-7l-1-4 1-3-6-2v-7l-2 1 2-4-2-3 3-1-3-2h2l-1-3h2v-2h-4l1-4h-2l2-6 2-2 1-4-1-3 4-13h2v-5l2-1-1-2 5-1v-5l4-1 3-3 4-3 4-1 1-2h2l2-5 5-5h2v-5l7-4h2l1-4 5-1v-2l6-3 4-4h5z" fill="#EFC19F"/>
<path transform="translate(332,727)" d="m0 0 11 2 2-2h14l22 1v2l-6 3v-2l-5 1-2 1-9 1-5 11h-2v2h2v2h-2v2l5 2v2l5 1 2 3 6 1 2 7-6 2v2l7 1v2l-5 2v8h-2v2h2l-6 12-2 14 8 4 16-4 3 3-9 4-15 5-8 3-9 3-7 1h-32l-1-1-12-1-7-3 3-1 1-2 9 1 1-1 3-4-1-1v-8l1-3v-10l1-6 1-9 2-3v-9l1-2 6-2 1-3h2l1-9 4-5 1-7 3-3 1-3h3z" fill="#825C46"/>
<path transform="translate(476,666)" d="m0 0 2 1-1 3 2 1-1 1v7l4 10 8 11 4 6 2 4 4 2 9 9 2 3-1 5-7 5-15 15-5 6-8 7h-2l-2 4-9 7h-2v2l-11 7-9 6-16 9-20 10-11 6-8 1-3-1-13 4h-4l-5-5 1-14 4-8 3-4h-2v-2h2v-8l5-2v-2l-7-1v-2l5-2-1-7-3 1-4-2-3-3-3-1-3-3-2-1v-2h2v-2h-2v-2h2l2-7 3-5 10-1 4-1h4l4-1 1-3 12-2 12-6 9-3 1-4h3l3-6h2v-2l11-8h3v-2l3-1v4h-2l-2 4-3 1-2 5h-2l-1 3-5 2-3 3-2 1-2 3-1-2v4l-2 2-3 2-3 1v5h-2l-2 10-1 4 1 4-1 4h-3l-1 4-1 2h2l-1 4h4l-1 5 2 3-3 1 2 2-1 2 1 4-1 4 4 1 2 1v7l9-1 2-2 11-2 5-3h4l3-3 3-2h3v-2l6-3 4-3h2v-2l8-7 3-1v-2h2v-2h2v-2h2l2-4 8-8h2l2-5 5-4 5-6 1-3-4 1-4-3-6 1v-2l-11-1-2-4-1-6v-28l-1-11-2 2-2-1 2-4z" fill="#CCAA90"/>
<path transform="translate(0,368)" d="m0 0 4 1 8 10 7 12 4 12 6 7 3 4 2 9 5 9 2 8 2 3 2 10 1 2 1 9 3 5-1 35-2 5 3 3v7l-3 9-2 4v19l-3 5h-2l-1 11-2 5v33l1 5-2 3 2 16 1 3 1 14 3 10 1 1 1 28 3 5 5 10 3 13v12l2 6 1 18 1 3 1 12 3 10 2 16 2 3v7l-1 3h-2v2l-3 3-2 4-4 2v-12l2-2v-8l-4-11-2-7-4-5-3-22-2-4v-6l2-6-2-4-2-18-3-5-1-13-4-11-1-3-1-13-4-9-1-7v-13l-3-4-1-23 2-18v-12l5-13 2-10-1-8 2-3h2l1-23 2-4 2-12 1-3v-32l-1-3-2-17-4-10-3-12-3-6-2-7-6-7-4-11-6-12-7-8-2-1z" fill="#4C4A46"/>
<path transform="translate(299,488)" d="m0 0h3l1 7 1 3 9 3 2 1v-2l5-2 3-6 1-4 4 1 3 2v7h3l1 5h-2v3h-2l-1 3h-2v2h-3l1 11 1 1v6l2 4v9l-2 10-2 13-1 2 1 19-5 5-5 1-1 3-10 1-1-2-7 1-13-4-2-5 1-2-2-1-1-9v-7l-2-3-2-10 1-4h2v-4h-3v-8h-2l-1-4h2v-2h-2l-1-4-2-3 1-2h-5l2-5h2l2-5 11 2h16v-8h4l1-4h2v-2l-4 1-7-6-1-4z" fill="#835D47"/>
<path transform="translate(380,316)" d="m0 0 8 1 3 2 1-2 6 1-1 2-4 2 7 2v2l5 2 4 2v3l4 2v2h-5l3 1v3l2 1h-3-4l16 5 2 5 10 3 1 2h-6l6 4v-2h2l1 7-9-3h-5l-1-1-3 1v-2l-4-1v2l-11-1-1 2-23 2-5 1-9-1-2 1-3-2h-7l2 2v-2l3 1h-2v2l-14 1-2-1v2l-14 3-4 2-17 8-7 3 2 2-2 3 1 4-6 5-4 1-1 8 2 5 1 8 4 3 1 3v11l-1 3 4 1 3-1 7 2v2h5v3h6l-1 4h5l1 3h2l-1 3h-6-3l-9-1-4-1v-2l-16 4v-2l-6 3h-2v-2h2v-2h2v-2l-3 2h-3v-2l-4 2-14-2-6-3-2-4 1-7 2-7 3-4 2-7 3-9 2-7 5-6 5-9 4-1-1-3 1-1 15-3 8-2h4v-2l-4-1 8-4 2-3h6l4-1v-2l9-1v-2l11-4-3-3 10-3 3-1v2l6-1 10 2 8 2-4-3 10-2 1-2 6-1 4 1 5-1-16-4 2-3h5v-1h6l-4-2-3-1-4-2-2-2h5l-2-2 4-1-5-1 4-2 4 1v3h8l-4-1v-2l8 1-11-4v-1h-8v-4l-8-2-2-3zm39 42 2 2 3-1z" fill="#674734"/>
<path transform="translate(418,610)" d="m0 0 7 1 4 4 1 3 2 2-5 2-13-1v2l-2 1-3 5-5 1v2l-3-1 1-4-4 1 2 3-9-1-3 1-1 2h2v3h-2v-2h-3l-2 10h3v2l5-1 1 5 3 2 2 10 2 3-1 1h-7l-1 4h-2v-2l-3 1-13 1-3 1-1 5-1 4 3 3 1 4h4v2l5 2 4 2h8l1 1 1-3h4l3-8h2l1 5 2-5 3 1v2h4v-5l1 2 3-1v4h2l1-3-2-5 4-1 2-6 1-5-1-4h2v2h2l-1-4 4 1v-5l2 4v6h2l1-2h4l2 7 1-4v-4l3-1 1 2-1 3 3-1-1-5h2l1-5 3-2h-2l-2 1-2-1-1 3-1-2 4-4 6-4 1-5-1-2 5-5h2v-2h2l1-4h2l1 3 3 2-3 1-1 5-4 3 2 4-1 5-4 4-1 2h-2v5h2l-1 4-2 4-5 1-2 4h-2l1 2h2l-1 3-5 1 2-1-1-2-3 1-2 4-1-3-2 3 1-9 1-2h-3v-3l-4-1 1 3-1 6h-2l-1 3-1-2-3 1 1 3-2 1-2 4-1-1-1 5-3 3-3-2-5 1 1 4-2-1-3 5-1-4-1-1h-2l-2 4-4 1-1 3h-2l-1 2-2-4-3 1-1 2-3 1v-3l-5 1h-3l-2-5h-2l-1 3-2 2-2 4h-10l-3-4-2-1 1-7h-2v3l-2-1-1-11-2-9-3-1 1-5 3-1 3-5 4-1 11 2 1-2 5-3h3l1-5 6-2-7-2-2-3-9-2-7-3-4-3-2-4-4-3-1-2 4-4 6-1-3-2v-2l4-1h10v5l4-1h14v-2l12-3v-2l4-1-1-2 1-3 14 2h3l1-6z" fill="#C8A78E"/>
<path transform="translate(282,468)" d="m0 0h13l-1 2h-6v2l-2 1 1 2h-10l1 3-4-1v2l-4 1-1 4-5 2-4 2-1 3-3 3-1 2-4 2-2 3-1 3v8l2 3v8h-2v2h2v13h2l4 11v2l2 1 4 11 1 9v3l3 3 1 5v14l3 3 2 8 4 2 5 9 1 13 2 7 5 4 1 5 9 3 2 3 6 4 3 1 3 8-1 3h2v2h2v3h-2v2l4 1 2 1 1 6 3 1 2 3 5 1 3 1v2h2v4l3 1 1 5 5 3h3l3 7 7-1v2h2l1 4-3-1-3 1v-2h-3l-1 2-4-1-2-2-3-2v-2l-5 1-3-7-2-1-1-5-1-3-3 1-2-3h-2l-1 2-1-6 1-4h-3l-2-4v-3l-3 1-2-5v-3l-4-2v-3l-6-4v-2l-4-1-1-2-6-1v-2h-2l-4-5v-2l-5-4-1-7-3-5-2-9-5-5-1-4h-4l-3-10-6-4-1-8-6-8-3-8-10-5-4-11-4-16-1-7v-21l3-23 2-8h2l-1-7 4-2v-2l4 1 1 5-2 2-1 4 6-1v3 2h4l1-2 4-1 3-2 6-1-1-4 3-1 2-4 4-2h3v-2l5-1z" fill="#302721"/>
<path transform="translate(445,365)" d="m0 0 2 1-1 2 4-1 5 3 4 2v2l6 1 2 4 3-1 1-2 2 2v4h-3l3 3-2 3-5 1-1-3-1-2-3 1-4-2h2l-1-3-2 1v-2l-3 1-3-3h-2l-1-2-2 2-1-4h-2l-1 3h-3l-2-4-2-1v3h-8l-6-1h-5l-2 3-9-1-4-1-4 1-4-2-28 7v3l-5 1v-2l-6 2v-2h-8l-1-3-4 2-2 6-3 2-2 5v9l4 2v3h2l2 4 5 2v2l-5 1-1 7 1 6-2 4h-3l-2 5 1 4 3 1 1 6h3v2l3-1 2 5h6l5 3-3 1v2h5l2-1v2l3 1-2 3 3-1 2 2-2 1 2 2-1 1 4 1v2l-4-1 1 4h-2l1 3v9l1 2v7l2 2v13l2 1v8l1 3v13l-1 5-2 13-1 5v10l4 5 4 3-2 6-6 4-4 5-5 5h-2l-2 4h-2l3 4v3l11 1 4 3-2 5-1-2h-3v3l-3-3-4-2v-3h-12l-2-5 5-5 3-1v-2l5-3 4-2 4-8 2-8-3-4-2-9 2-12 2-8v-13l-1-5-1-26-3-16-1-9-5-4v-3h-3l-1-3-2-1-1-3-2 2-2-6-5-1 1-2-4-1-3-2v-2l-4-1-6-3-2-3-5-3-1-5-4-1v-3l4-2 1-2h-2v-12-2l-5-13 2-11h2v-5l-3-2h3l-1-3 5 1v-2l-2-1 7-3 6 1 7-5 2 2h-2v2l6-1 1-3 15-1 4-1v2l6-1h2l2-2 8-1h10l3-1 8 2h7v2l12-4v2h2v-2l7 1h1l4 1v2h3v-2h2v2l4-3h2z" fill="#B27F62"/>
<path transform="translate(434,371)" d="m0 0 3 1 4 8-10 1-4-1-4 1-1 3h2v-2l7 1-1 2h-13l-3-2-1 2-8-2h-5l1 3-1 2-9-2 1-2h2v-2l-6 2v4l-2 3-4-1v-3h-3l-1 3-6 1-1 4 3 1v2l2 2-4 2-2 3h-2l2 6 2 1-1 4-1 2 4-2v6l-5 6-1 4h-5l2 2h3l-1 2h-2v4l-4-1-2 1h-1v9l3-2 2-6 3 1-1 7h-2l-1 2-1 1 2 2 1-3h2l4 6 4 3v2h-5l-2-2h-7l1-3-7 1-4-1h-4l-1-5h-3v-2l-4 1-1-7-2-1v-3l-2-1 2-7 1 2 3-2 1-6-1-2 1-7 1-1h5l-1-2-5-2-1-4h-2l-2-4-2-1-1-9 3-6 3-1-1-3h2l1-4 4-2 1 4 6-1 2 1v2l3-2 8 1v-3l8-3 16-4 5-1 5 2 5-1 1 1 9 1 2-3h7l12 2z" fill="#CCAA90"/>
<path transform="translate(371,281)" d="m0 0 5 1 12 3h4l1-2 6 2-1 2h-6l5 2 8 2 12 4 5 3-4-3-8-4 3-1 9 4 9 5 4 1 5 4-2 5-1 3 7 1-1 4 4 1-2 2 2 1-1 2 1 1h5l5 1 3 2 2 2h3l9 3v1l-4 1 4 2 1 2h-3l2 1v2l6-2-1 2h-2l1 2 5 1-3 1 4 4v3l3 1-7-1-2-2h2v-2h-3l-1 3-7-1v-2l-10-4 2 4h3l5 3 8 1v2l-4 1-1 2 9 1 1 4-5 1v4l7 1-1 7 1-1 2 3 2-1 1 4 6 5 2 5 2 11h2l3 5-1 2-3 1-3-8-1-3h-2v-2l-4-2-5-5v-3h-2l-4-7-1-4-2-3h-4l-5-6v-3l-3 1 2 4-2 1v-3l-5-1-3-5-5-1-4-3v-2l-4-2-7-6-6-2-5-5 3-2-6-2-8-4v-3l-5-1-1-2 8 1 8 4h2l1 3 2 1-1-3 1-2h-2v-2h7l2 2h3l-8-4-6-1-1-1-8-1v-2h8l-5-3-2-4-7-3-1-2 2-1-13-5 4-1 4 1v-2l-15 1h-2v1l-7-1-10-2 4-1h10l6-1v1h10l-8-1-11-5-10-1-5 1-2-3-5-1 3-3 3-1h3z" fill="#2D2621"/>
<path transform="translate(318,720)" d="m0 0 2 1v2l6-1 6 3h5l3 1 4 1-1 4v-2h-7l-3-1-1 6-1 2h-3l-1 5-2 3-2 7-3 1v8l-6 8h-5v11l-2 3-1 13-1 7v6l-1 2v8 3l-3 5h-9l-1-2v2l2 2-7-1-14-7-10-10-4-7v-2l6-1v-6l5-4 3-7 10-2 4 5 6 12v3h5l1-8-1-9-1-2 1-9-1-4v-9h-2v-6l2-4h-2l-4-6 1-5 7-2 6 2 6-2 1-9 2-5z" fill="#302721"/>
<path transform="translate(419,358)" d="m0 0 5 1-3 1zm-4 1 6 1-1 3 4-2 5 1 9 4 1-3v5h-2v2h-3v-2l-4-1v2l-6-2-2-1v2h-2v-2l-4 3-8 1v-2l-8 1-8-2-6 1h-10l-5 2-3 2h-4l-4-1h2v-2l-4 2-15 1-1 2-6 1v-3l-8 5-5-1-5 3v2h-4l1 4-1 5h-2l-1 11 5 13 1 2h-2v12h2l-2 4h-3v3l5 1 2 6 4 2 2 3 6 2 3 2v2l5 2 3 1 1 2 2-2 3 7 2-1v4l3 1v3h3l3 5 3 2 1 9 3 17v9l1 18 1 9-1 13-3 11v6l4 9 1 3-5 13-4 4-7 2v2l-7 6 1 4h7l5 1 1 3 5 3v-3l4 2 2 5-4 1-1 5h-2v-5l-13 1 1-5-5-2-3-2h-3l-1-7h2v-4l6-5 4-2h3v-3l4-4 2-5 4-2-2-10-3-10v-7l3-7 2-8-1-1v-10l-1-6-1-25-2-10-2-8-6-5-4-5v-2l-2-1-1-1-2-4-7-4v-2l-7-1v-2l-5 1 2-1v-3h-5l1-4-6 1-2-2 1-1-4-1-1-2-8-1-3 1-3-3 1-2v-11l-1-3-4-3-1-8-2-6 1-7 6-3 4-3-1-5 2-2-2-3 15-6 10-5 3-2 9-2h6v-2h16l-1-1h-5l2-3h8l4 2 4-1 9 1 5-1 20-2-1-2 13 2z" fill="#825D47"/>
<path transform="translate(405,453)" d="m0 0 17 1 2 2 14 3 15 5-2-4 1-1 7 1 5 3 1 3h5l6 4-2-2 1-4 8 2 2 4 2 3-3 1h3l-2 5 2 2-5-1-4-2-1-1h-14l-15-2-1-1h-12l-5 1-2 4h8l13 4 11 3v2h3v2l4 2 1 3-4 1-8-3-4-2v-4l-5-2-10-3h-8l-3 1v2l13 1 9 4v2l4 1 4 2-1 5-7-4-8-4-1 6-5 4h-9l-6-5-2-7-4 1-1 7 7 4 3 5 3 2v2l-2 1v2h-6l-7-3-5-3v-2h-2v-2l-4-2-2-3 1-6h-2l1-6 3-4-3-12-4-2-3 2v-3h2l1-8 2-1v4l1-7 1 3h2l1-3h2v-2z" fill="#B38165"/>
<path transform="translate(531,480)" d="m0 0 5 2 3 9v21l-4 16-5 16-5 12-3 7v15l-5 10-7 5-6-1v-10l2-11 1-16 2-8v-10l2-11 2-17 2-10 3-2v2l3-2 4-12h2v-2z" fill="#EBBE9D"/>
<path transform="translate(339,485)" d="m0 0 9 2 1 2 5 2 3 5 1 8v25l2 5v12l-3 6h-2l1 13 2 8h2l2 9h-10l-5 8-4-2v-5h-2v-2l-4-1-6-4-4-4 1-4 2-6h2l1-7 2-3 1-7 2-4 1-9v-12l3-5-1-10-1-1v-6h-5l-4-9 6 1 3 2z" fill="#312822"/>
<path transform="translate(332,727)" d="m0 0 11 2 1 5h-6l1 3h-2l1 3-2 6h-2l-1 6-1 16 1 5h-3l-1 4-4 2h-5-2l-4 4-1 4-2 1-1 10-1 1-1 11-1 7v5l2 5-1 2h14l4-9 2-6 3-4 2-4-1-9v-4l4-2v-2h10l2-3h6l3 6-2 4-1 6-1 1v7l1 4-2 5v5l3 3-9 3-7 1h-32l-1-1-12-1-7-3 3-1 1-2 9 1 1-1 3-4-1-1v-8l1-3v-10l1-6 1-9 2-3v-9l1-2 6-2 1-3h2l1-9 4-5 1-7 3-3 1-3h3z" fill="#674633"/>
<path transform="translate(382,727)" d="m0 0h7l-1 4-2 3h2v6l-2 4h-2l-2 5-3 1v7l6 5-1 5 5 1-1 2h-2l-1 3h-2l-1 3h-2l1 7-3 7-5 2v7l-2 6 5-2h8l5-1h3l-1-2 11 1v2l5-1-2 3h-2v3l-10 5-8 1-3-1-13 4h-4l-5-5 1-14 4-8 3-4h-2v-2h2v-8l5-2v-2l-7-1v-2l5-2-1-7-3 1-4-2-3-3-3-1-3-3-2-1v-2h2v-2h-2v-2h2l2-7 3-5 10-1 4-1h4l4-1z" fill="#B17F63"/>
<path transform="translate(500,593)" d="m0 0h2l-2 17-1 1v7h-2l-3 9-2 13-3 2-3 5-1 8-5 5-2 4h-2v3l-6 5-1 2-5 3-3 3-5 1v2l-5 1-1 4-10 6h-2v2l-8 4-4 4h-2v2h-2l-3 6-3 1-1 3-5 3-7 2 1-3 9-5 5-4 2-5 3-7h-2l-3 9-2-4v-2h-2l-3 3-2-9 6-2 2 1 2-2 1-4 5-5-1-3 4-1h2l2-7v-3l4 2v3h3l-1 8 2-1v3l5-5 2 3 3-3h-2l-1 2v-4h2l2-5 5-1 3-7-3 1 1-6h2l2-5 2-2h1l2-7 2 2-1 2 4-1 1-8 2 1 2 5 1 2 3-6 4-4v-3l1-1-3-1 3-3 3-8h2l1-7 2-3v-5l3-6 3-4z" fill="#585551"/>
<path transform="translate(411,928)" d="m0 0h11l9 4 5 5 3 4 1 9h2l13 95 5 41 6 42 6 48 5 39 3 18 2 20 2 14 1 13h-3l-3-16-5-39-3-22-7-51-10-72-5-32-8-58-4-32-3-11-1-4-3-1-5-5-8-4-9-3z" fill="#555856"/>
<path transform="translate(296,382)" d="m0 0 3 1-5 3-6 7-5 3-2 6v28l3 2 4 8 4 9v-3h2v3l10-1h6l-4 2 3 3v-2l5-1v2h12l1 3h2l-1 3h-6-3l-9-1-4-1v-2l-16 4v-2l-6 3h-2v-2h2v-2h2v-2l-3 2h-3v-2l-4 2-14-2-6-3-2-4 1-7 2-7 3-4 2-7 3-9 2-7 5-6 5-9 4-1-1-3 1-1z" fill="#4A3225"/>
<path transform="translate(496,390)" d="m0 0 5 4 1 6 2 3 2-1-1 7 4-1 1-2h4l2 1 2 13-1-2h-3l-3 7v5l1-6 4 4h2v-2h-3v-6l4 4 1 3 1-4-2-5 1-4 2 5 1-3 1 5h2l2 4-3-1-1 2h2v2l5 1 1-2h3l-1 6h-3l2 7-1 2h-2l1 6-2 9v7l-2 8h-2l2 5-2 2-5 1-1 2h-2v3l-5 1-1-5-2-1v-3h2l-1-5v-13l1-4 1-3 1-4-3-1v-9l1-3-5-2h-2l-2-4-2-6 1-4h-2v-7l-2-4 1-5 2 3 1 2 2-2-2-5h-2l-3-8z" fill="#5C5E5C"/>
<path transform="translate(322,457)" d="m0 0h6v2l6 2 10 10 1 5h3l1 3 4 2 3 5 4 8 1 16v15l1 3v20l-3 7-1 10 4 8 2 8-2 1-2-4v-5h-2l-3-8v-13h2l2-6v-12l-2-5v-25l-1-9-3-4-5-2v-2l-6-1-3-1 2 7h-3l-3-2v-2l-7-2-8-1-1-1-17-1 2-3h-14l-1-5 1-3 9-2v-2l3-1h12l1-4h4l1-3 3 1-1 1 8 2 2-1-5-1v-2l-6-1z" fill="#4A3326"/>
<path transform="translate(344,635)" d="m0 0 5 3 4 6 2 2 2-1v3l6 1 8 1 1 4 8 1-2 3-5 1-1 4-5 3h-3l-1 3-12-2-3 1-3 6-3-1-1 5 3-1v2l2 1v2l1 6v6l2 6v-3h2l-1 7h4l2 4h9l2-6h2l1-2h2l2 5 8-1 1 2 5-2 1-2 3 3 2-2 3-4v2h2l2-5h2l2-3v8l2-5 3 2-1 9-5 1v-2h-3v2h-2l-1 4-1-3-3 3-3 1-1 2-6-1v2h-2l-1 2 1-5-1-3-4-1-1 3-4 1-5-2-5 3-2 2v-2l-5-1-5 1-2-10-2 1v-4l-4-1v-2h-2v-6h-2l-2-6-4-1-2-1-1-5-1-1v-6l4-8 8-2v-2h2v2l8-2 4-2 3 1 4-1 2 5 3-1v-5l-8-1-6-2 1-4-1-3h-2l-1-4h-3v-2h-2l-2-4z" fill="#825C46"/>
<path transform="translate(296,524)" d="m0 0 14 1-2 4-3-1-1 8 3 4v2l7-1 1 8h3l2 5h2l-1 4 1 3-1 7 1 5-3 9-1 2-12 1-8 1-5-3v-7h-2l1-6-2-5 3-1v-3l-4-1-2-4 1-4 2-2h5l1 2v-8h-2l1-3 3-3-3-1 3-1-1-6-3-1z" fill="#B27F62"/>
<path transform="translate(465,629)" d="m0 0h2l1 3 3 2-3 1-1 5-4 3 2 4-1 5-4 4-1 2h-2v5h2l-1 4-2 4-5 1-2 4h-2l1 2h2l-1 3-5 1 2-1-1-2-3 1-2 4-1-3-2 3 1-9 1-2h-3v-3l-4-1 1 3-1 6h-2l-1 3-1-2-3 1 1 3-2 1-2 4-1-1-1 5-3 3-3-2-5 1 1 4-2-1-3 5-1-4-1-1h-2l-2 4-4 1-1 3h-2l-1 2-2-4-3 1-1 2-3 1v-3l-5 1h-3l-2-5h-2l-1 3-2 2-2 4h-10l-1-4 4-1 2-1 2 3 1-2h2l-1-8 5-5 2 2 5 2 2 3-1 2 8 1 1-3h4l1 2h2l1-8 3-1 3-8h2l1 5 2-5 3 1v2h4v-5l1 2 3-1v4h2l1-3-2-5 4-1 2-6 1-5-1-4h2v2h2l-1-4 4 1v-5l2 4v6h2l1-2h4l2 7 1-4v-4l3-1 1 2-1 3 3-1-1-5h2l1-5 3-2h-2l-2 1-2-1-1 3-1-2 4-4 6-4 1-5-1-2 5-5h2v-2h2z" fill="#B58B73"/>
<path transform="translate(442,373)" d="m0 0h2l1 3 2-2 7 5 3 1 2-2v5l5 1 2-1 1 4-1 2h2v-5l1 4 3-3 8 1 2 1 2 7-1 2h2v2l2 1v5l5 1 1 3-1 2 4 2h-3l1 4h2l3 15h3l-1 4 2 6h1l2 7 2 10 1 10-2 23v17l1 4-2 32-4 18-2 1-1 5h-1v-6l2-2 3-20 1-28v-56l-1-5h-2v-3h-2l-3-6v-2h-3v-2h-2v-2h2v-3l-3-1-1-2-2 3-3-9-4-3-2-6h-2v-2h3v-2h2l-3-6-1-4-2-1h2l1-6h-2v2l-6-2-1-3-3 3h-2v-3l-5 1v-2l-8-1-3-2-3-1 1-3-1-2-2 1-3-3-1-3z" fill="#C8A78E"/>
<path transform="translate(448,325)" d="m0 0 4 1 5-1 3 2 2 2h3l9 3v1l-4 1 4 2 1 2h-3l2 1v2l6-2-1 2h-2l1 2 5 1-3 1 4 4v3l3 1-7-1-2-2h2v-2h-3l-1 3-7-1v-2l-10-4 2 4h3l5 3 8 1v2l-4 1-1 2 9 1 1 4-5 1v4l7 1-1 7 1-1 2 3 2-1 1 4 6 5 2 5 2 11h2l3 5-1 2-3 1-3-8-1-3h-2v-2l-4-2-5-5v-3h-2l-4-7-1-4-2-3h-4l-5-6v-3l-3 1 2 4-2 1v-3l-5-1v-2l3-2-10-8-4-1v-2l-5-2-7-4-2-5-2-3 1-2-3-1 2-2 5 3v2l6 2 4 3v2l2-2-4-6-5-3 2-1 10 5 9 3 3 3 6 2v-2l-5-1 2-5-4-2h-2l4 3v2l-6-2-4-1-5-3-4-4 5 1 4 1-8-4z" fill="#221E1A"/>
<path transform="translate(328,725)" d="m0 0h9l3 1 4 1-1 4v-2h-7l-3-1-1 6-1 2h-3l-1 5-2 3-2 7-3 1v8l-6 8h-5v11l-2 3-1 13-1 7v6l-1 2v8 3l-3 5h-9l-1-2v2l2 2-7-1-14-7-8-8 1-3h2l4-3 7 2 1-2 7 1 3 5 6 4 3-2 3-13v-15l1-2h2v-4h-2l-1-17 3-11 5-2h3l1-4 3-1 2-5h2l1-5 2-2 2-6h3z" fill="#4A3224"/>
<path transform="translate(193,482)" d="m0 0 2 3 1-2 4 1h2l3-1 1 3 2-1v4l3-1 3 5-1 3-2-5-4-1v-2l-2 1 1 5h3v8h-1l-2 9-2-1v22l1 6h2l-1-10 1-7 5-4 4-7h1v18l-1 11 5 7 1 8-1 10h-1l-1-16-1-4-4 1-5-3-1 2 2 5 1-2h6l1 1v9h-2l-2 7-1-2-2 1v8l-3 2v-12l-7-19-6-20-4-10v-17l1-11z" fill="#1E1511"/>
<path transform="translate(418,610)" d="m0 0 7 1 4 4 1 3 2 2-5 2-13-1v2l-19 3-5 1v2l-7 3h-3l-1 2h-2l-3 3v3h1l1 9 9-1-3 5 5 1 1 5-4 1v2h-2v2l-7 1-2-1v2l-9 3v-3l5-3h3l1-5 6-2-7-2-2-3-9-2-7-3-4-3-2-4-4-3-1-2 4-4 6-1-3-2v-2l4-1h10v5l4-1h14v-2l12-3v-2l4-1-1-2 1-3 14 2h3l1-6z" fill="#B17F62"/>
<path transform="translate(394,584)" d="m0 0h6l2 1v2l1 1 1 6h2l-2-6h3l-1 2h2v2l3-1-1-3 4-1v3h3l5 7-1-3 4 2 2-1v-2l4 2 1 3 4 2 1 4-2 2h-5l-1-4h-2l2 9 5 1 2 6v6l-3 3-3 1-4-2v-2l-4 1-8-3v-1h15v-3l-3-5-4-2h-6l-1 6-6 1-9-2v-2l-7-1-16-1 2-4 3-1v-4l11-4 3 2 1-8h2l-5-4 1-1-2-1z" fill="#CBAA90"/>
<path transform="translate(476,666)" d="m0 0 2 1-1 3 2 1-1 1v7l4 10 8 11 4 6 2 4 4 2 9 9 2 3-1 5-7 5-15 15-5 6-8 7h-2l-2 4-9 7h-2l-1 2 1-5 8-7 3-1v-2h2v-2h2v-2h2l2-4 8-8h2l2-5 5-4 5-6 1-3-4 1-4-3-6 1v-2l-11-1-2-4-1-6v-28l-1-11-2 2-2-1 2-4z" fill="#CDAB91"/>
<path transform="translate(390,584)" d="m0 0 3 1v2l3 1-1 1 3 2 2 4-2-1-2 7-4-1-7 3h-3l1 4-4 1-1 3 15 1 7 2-2 1 1 5-5 1v2l-10 3h-2v2l-5 1h-9l-2-1 1-5 1-2h2l1-6-3-2-11-2-3-5v-2l6-5 4-4 2-3h2l1-3 5-2v5l5-1 5 1 2-6z" fill="#CAA98F"/>
<path transform="translate(0,406)" d="m0 0 4 4 1 2 1 11 3 5 2 13 3 9-1 26-1 2-1 11-4 6-1 9-1 1-2 13-1 2h-2z" fill="#131413"/>
<path transform="translate(310,374)" d="m0 0 4 1-3 2 3 2-13 5-1 1 2 2-2 3 1 4-6 5-4 1-1 8 2 5 1 8 4 3 1 3v11l-1 3 4 1 3-1 7 2v2h5v3h6l-1 5-7-1v-2l-5 1v2l-3-1-2-3h-5l-3 1-2-1v-3h-2v3l-2-1-4-10-2-3v-3l-4-2v-30l4-6 4-1 1-3 5-5 5-2v-2l9-1v-2l-4-1z" fill="#684734"/>
<path transform="translate(321,613)" d="m0 0h6l2 1v2l5 1v2l4 2 5 2h1l4 1v4l-9 3-2 1 3 1 2 11 4 2v3l-4 1 1 4-7 2-5-5-3-1v-2l-3-1-1-5-4-2-2-7-5-11 1-5z" fill="#4A3225"/>
<path transform="translate(416,478)" d="m0 0 20 1 13 4 11 3v2h3v2l4 2 1 3-4 1-8-3-4-2v-4l-5-2-10-3h-8l-3 1v2l13 1 9 4v2l4 1 4 2-1 5-7-4-8-4-1 6-5 4h-9l-6-5-2-7-4 1-4 4-1-1v4l3 1-1 2-6-1 1-8h-2l-1 4-1-5 1-2-4 2 2-4 4-4 7-3z" fill="#805B45"/>
<path transform="translate(418,305)" d="m0 0 7 1 3-1 5 3v3l3 1-4 1h-3l-1 2 4 1 4 2-3 1 12 1 2 1-1 2 1 1h5v2h-4l10 5-1 2-6-2h-3l6 3 4 1 4 2 3 2-5-5-1-2 5 2 3 2-1 4 4 2v2l-9-2v-2l-5-2-4-1-10-5 6 5v2l2 2v2h-3l-4-4-6-3v-2l-6-2 2 4 3 4 3 5 9 5 1 2 5 1 5 5 2-1v3l2 1-4 2-3-3-5-1-4-3v-2l-4-2-7-6-6-2-5-5 3-2-6-2-8-4v-3l-5-1-1-2 8 1 8 4h2l1 3 2 1-1-3 1-2h-2v-2h7l2 2h3l-8-4-6-1-1-1-8-1v-2h8l-5-3-2-4-4-3h6l3 1 4-1-8-4z" fill="#585C5A"/>
<path transform="translate(467,660)" d="m0 0 1 3 5 1 1 4-5 6-5 3-3 3-5 1v2l-5 1-1 4-10 6h-2v2l-8 4-4 4h-2v2h-2l-3 6-3 1-1 3-5 3-7 2 1-3 9-5 5-4 2-5 3-7h-2l-3 9-2-4v-2h-2l-3 3-2-9 6-2 2 1 2-2 1-4 5-5-1-3 4-1h2l2-7v-3l4 2v3h3l-3 13 1-1 3 1 1 2 2-2h4l1-3 5-1 1-3 3-3 4-3h2v-2l-3-1v-2h2l1-1z" fill="#74523E"/>
<path transform="translate(435,473)" d="m0 0h12l1 1 15 2h14l4 2v3h-11l-5 1v-2h-7l6 2 8 1-2 3h-2v2h13l2 2-9 1-2-1 1 6-6 2-2 4h-6v2h-8l-3-2-1 2-4-2v-2l3-1v-5l9 5v-4l-7-3-1-2-8-3-13-2v-2l3-2h8l10 3 5 3 2 4 10 4 3-1-4-4v-2h-3v-2l-9-1-11-4-12-2 2-5z" fill="#C8A78E"/>
<path transform="translate(279,389)" d="m0 0h2v3h-3l-1 5-2 2-2 9-1 13-3 7-2 1 1 9 2 6 11 4-2 1v2l6-2v2h10l5 2 4 1-10 3-4 1v-2l-6 3h-2v-2h2v-2h2v-2l-3 2h-3v-2l-4 2-14-2-6-3-2-4 1-7 2-7 3-4 2-7 3-9 2-7 5-6 5-9z" fill="#302721"/>
<path transform="translate(705,887)" d="m0 0 3 1 1 16 1 5 1 3 1 5 2-1 1-7-2-22 7 1 1 13-1 1 1 14 1 9 1 14-1 20-1 1v17l3 31 1 5-2 1-2-11-2-21-2-13-2-18v-15h-3l-1-13 3-3-5-1-3-12-1-11-1-6z" fill="#3E4240"/>
<path transform="translate(425,932)" d="m0 0 5 2 6 3 3 4 1 9h2l13 95 4 32 1 17 4 28v9h-1l-7-49-9-57-5-41-3-23-3-13-2-5-7-8z" fill="#7B8180"/>
<path transform="translate(327,575)" d="m0 0 6 2 8 4v2h2l2 4 2 2 5-8h12v3h-5l-1 5-3 5-8 4-3 3-8 2v3l-4-1-6 1v2l-5-2-2-6 1-3 7-6 1-7 2-1-3-6z" fill="#4A3325"/>
<path transform="translate(524,426)" d="m0 0h2v2l5 1 1-2h3l-1 6h-3l2 7-1 2h-2l1 6-2 9v7l-2 8h-2l2 5-2 2-5 1-1 2h-2v3l-5 1-1-5-2-1v-3h2l-1-5v-13l1-4 1-3 5 2 1 3 2-1v3l1-1v-9l-2 1v-3h3l1-3 1 3 4 4v-5h-3v-3l-3-1 1-4 1-8z" fill="#5B5F5D"/>
<path transform="translate(408,556)" d="m0 0 11 4 1-2 5 6 5 4 5 6-1 1 4 2 1 4 2 4-1 5-8-1v-2l-4 2-4-2-7-6-6-9-1-3-2-1-2-10h2z" fill="#CAA98F"/>
<path transform="translate(447,357)" d="m0 0 8 6h4v2l5 1-1-3 2-1 2 1 2 5h2l1 4 4-1 4 6 2 5 1 4h2l1-2v5l3 3 5 4v2h2l3 5-3 5 1 3-5-1-1-5-2 1v-2h-2l-2-8h-2l-1-9-8-1-4-2v-2h3l-2-5-5 3-1-5-6-1-4-4-1 4v-5l-8-1-1-1-4 3h-2v-7h2l-1-3 1-2h5z" fill="#74513D"/>
<path transform="translate(440,638)" d="m0 0h2v3h2v3h-3v6l3 2 5-2-1 3h-2v3l1-2h3l1-2 3 2-3 3-2 5v2l-1 3h-3l-1-4-1 4-2 7-2-3v-3-4h-2l-1 2h-4l-1-6-4 1v3h-2v-2h-2v3l2 1v3h-2l1 3-3 6-3 1 2 4-1 3h-3l-1-3-2 1-1 3-3-1v-4l1-5 8-3 2-3v-3l1-3-2-2 1-4 2-4 2-6 3 3-1-4h2l1 5h2l-1-4h2l1-9h1l1 10 2-1 1-9z" fill="#CAA88F"/>
<path transform="translate(380,316)" d="m0 0 8 1 3 2 1-2 6 1-1 2-4 2 7 2v2l5 2 4 2v3l4 2v2h-5l3 1v3l2 1h-3-4l16 5 2 5 10 3 1 2h-6l6 4v-2h2l1 7-9-3h-5l-1-1-3 1 2-4-6-4 1-3-9-4v-3l-12-1 1-2-4-2-3-1-4-2-2-2h5l-2-2 4-1-5-1 4-2 4 1v3h8l-4-1v-2l8 1-11-4v-1h-8v-4l-8-2-2-3z" fill="#565957"/>
<path transform="translate(302,467)" d="m0 0h12v2l10 1 5 1-1 3 4 2 1 2-7 1 6 3 3 3v2l4 1 2 4h-3l-3-2v-2l-7-2-8-1-1-1-17-1 2-3h-14l-1-5 1-3 9-2v-2z" fill="#815E4A"/>
<path transform="translate(411,453)" d="m0 0 11 1 2 2 14 3-1 2 9 3v3h2v2l7-1v3h10v1l-11 1-11-1-5-1-4-1h-21v-1l-12-1 2-3-2-1 2-2-2-2 9-4-3-2z" fill="#684D3D"/>
<path transform="translate(494,576)" d="m0 0h2v8l-2 6-2 7-2 3v9l-4 1-1-10v3h-3l-2 9-1 5-1 3-3 1-3 4-2-2-2 2-1-8-1-1v5l-4 6-3 1-2 2-1-10 2-1v-8l3 1 3-1v2l-3 3 3-2 2-4 6-2 1 3 1-2h2v-9l4-2 2-5 4-4 3-5h2l-1-4z" fill="#C9A88F"/>
<path transform="translate(452,459)" d="m0 0 7 1 5 3 1 3h5l6 4-2-2 1-4 8 2 2 4 2 3-3 1h3l-2 5 2 2-5-1-4-2-1-1h-14l-15-2-1-1h-15v-2h-3v-2l-3-1h8l8 1 7 2h6l-5-1v-1l3-1h-5v-2h-2v-3l-9-2-2-2 11 1 5 3 1-1z" fill="#AF9583"/>
<path transform="translate(343,544)" d="m0 0 4 2 3 5-1 10-9-1-1 4-2 5 1 5 3 4v2l4-1 1-5 7-1 7 3 2 6h-10l-5 8-4-2v-5h-2v-2l-4-1-6-4-4-4 1-4 2-6h2l2-6 3-3 3-5h2z" fill="#131312"/>
<path transform="translate(409,330)" d="m0 0 12 6 2-1 7 2-3 3 5 4 5 2 3 2v2l4 2 3 2v2l4 2 6 2 2 3h-2l-1 2-8-7-5 1-2-1v5h-4v-4h-2v2l-5-2-2-2 4-1-8-4-2-4-18-6v-1h6 1v-3l-10-1v-1h10l2 1-4-4z" fill="#2E2824"/>
<path transform="translate(505,394)" d="m0 0 2 2 3-2 2 3v3h2v2l3-1 4 8h2v3h3l1 1v-4h2l1 2 1-4 2-1-1-2 2-1v-5l4-1v2l-2 1 1 3-1 5h-2l2 10-1 4-1 5h-2l-1 3-5-2v-2h-2l1-3h1v-2h-2l-1-2-1 3-2-4 2 5-1 6-2-2-3-6-1 5h3v2h-2l-1 3-2-6-1 6-2-1 1-7 3-9 1 4 2-1-2-10-2 4-1-4-7 2-1-4-4-8 2-2 2 1z" fill="#312C28"/>
<path transform="translate(336,387)" d="m0 0 2 1v3l-4 4 5 1 3 7 5 4 3 2-2 9v6h3v2h-4l-1 9-4 2 1 3-2 2 1 3-1 2h3l1-2 2 3-1 2h3v4h2l-1-3 2-1v3h2l-1 3-7 1-1-5h-3v-2l-4 1-1-7-2-1v-3l-2-1 2-7 1 2 3-2 1-6-1-2 1-7 1-1h5l-1-2-5-2-1-4h-2l-2-4-2-1-1-9 3-6z" fill="#B69986"/>
<path transform="translate(413,593)" d="m0 0 2 1-1 6h-3l1 5h3l1 4h-2l1 3-2 4h-7l-13-3-16-1 2-4 3-1v-4l11-4h4l2 1v2h7l-1-5 3-2h2 3z" fill="#F0C2A0"/>
<path transform="translate(472,639)" d="m0 0 2 1 2 5 2 2-1 6-4 4-1 3h-2v3h-4l-2 6-2 1v-2h-2l3 3v2l-7 5-3 4-5 2-1 2-5 2h-3v-2l-2-1v2l-2-1 3-5 2-1v3l5-5 2 3 3-3h-2l-1 2v-4h2l2-5 5-1 3-7-3 1 1-6h2l2-5 2-2h1l2-7 2 2-1 2 4-1z" fill="#7D5A46"/>
<path transform="translate(404,693)" d="m0 0h1v8l2-5 3 2-1 9-5 1v-2h-3v2h-2l-1 4-1-3-3 3-3 1-1 2-6-1v2h-2l-1 2 1-5-1-3-4-1-1 3-4 1-5-2-5 3-2 2v-2l-5-1-5 1-1-5 4-1v3h3l1-3h8l2-6h2l1-2h2l2 5 8-1 1 2 5-2 1-2 3 3 2-2 3-4v2h2l2-5h2z" fill="#614839"/>
<path transform="translate(463,351)" d="m0 0 7 1h7v2l-4 1-1 2 9 1 1 4-5 1v4l7 1-1 7 1-1 2 3 2-1 1 4 6 5 2 5 2 11h2l3 5-1 2-3 1-3-8-1-3h-2v-2l-4-2-5-5v-3h-2l-4-7-1-4-2-3h-4l-5-6 1-3v-2l-1-4-4-1-1-3z" fill="#302722"/>
<path transform="translate(411,928)" d="m0 0h11l9 4 3 2v2l-5-2h-2l7 7 3 5 1 8 2 7 5 41 7 49 7 45 4 30v13h-1l-8-59-5-32-8-58-4-32-3-11-1-4-3-1-5-5-8-4-9-3z" fill="#545755"/>
<path transform="translate(389,768)" d="m0 0v3l-3 6h6v2l-3 2-1 3h-2l-1 4-3 4v5l1 1h9l8-2 1 1h11l5-2 3 2v2l-17 8v-2l3-2h-4v-2h-10l2 2h-9l-2 1-7-1-1 2h-4v-5l1-3 1-5 5-2 1-6 1-4v-4h2l1-4h2z" fill="#B69986"/>
<path transform="translate(329,457)" d="m0 0 7 1v2l6 2 5 5 2 5 7 8 3 2 3 10 1 8 1 25 1 9v7l1 3-4 12-1 1v7l5 17-1 4-2-1-1-8-4-9-1-7 4-12v-20l-1-4v-22l-1-8-4-8-3-5-4-2v-3h-3l-3-6v-2l-4-2-4-3v-2l-4-1-2-2z" fill="#684734"/>
<path transform="translate(351,666)" d="m0 0 12 2v4l-5 3-1 2h3l-1 3h-2l2 8-2 4v-3l-3 1v8l-1 3 3-1-1 4-3 1-2-1 1-7h-2v3l-2-1-1-11-2-9-3-1 1-5 3-1 3-5z" fill="#B27F62"/>
<path transform="translate(508,519)" d="m0 0h1v5h2l-1 14v9l-2 10-1 14-2 11-1 11-2 2v-2h-2l-1 5-2 3-1-1v-13l1-1v-7l3-12 5-23 2-18z" fill="#815E49"/>
<path transform="translate(500,562)" d="m0 0h1v7l-3 12v5l-1 2-1 13-2 7-1 5-3 8h-2v4h-2l-1 5-2 2h3v2h-2l1 3-3 4h-2l-1 4-3 4-1-5 1-4 2-7-1-4h2v2h2l-1-4 2-3v-3h2v-9l1-5 2 2 2-1v-8l3-6 3-10 2-16h2v-5z" fill="#B29481"/>
<path transform="translate(387,448)" d="m0 0h1v5h5v6l-4 7h-2l-1 4h-2l-2 2-1-2-4 1-4-3v-2h-2l-1 4h-5v-3l-3 1 2-4-2-1-1-1-3 1-3-1v-2l4-3h2l1 2h5l2 2 5 1 1-5 2-2 3-4h6z" fill="#C4A38B"/>
<path transform="translate(331,496)" d="m0 0 9 2v6l2 1 1 10-3 5v17l-2 7-1 1-1 7-3 6-1 4h-2l-1 6-1 4 4 5-5-2-2-2 1-8 5-12 2-23h2v-7h-4l2-5 2-3-1-1v-8l4-7-7-1z" fill="#4A3224"/>
<path transform="translate(414,449)" d="m0 0 5 2 8 1 1-2 5 2 1-2 5 2 2-1 3 5 2 1v-3l5-2v2h6l8 6 2-1v3l5 1 1-2 3 3-2 4 3 1-1 2-6-4-5-1-3-4-5-2h-5l2 5-6-1-2-2-15-4-12-2v-1l-13-1h-3l-2-2 3-2z" fill="#C9A88F"/>
<path transform="translate(498,434)" d="m0 0 3 1 2 6h1l2 7 2 10 1 10-2 23v17l1 4-2 32-4 18-2 1-1 5h-1v-6l2-2 3-20 1-28v-56l-1-5h-2v-3h-2l-3-6 1-5 1-1z" fill="#BC9880"/>
<path transform="translate(304,611)" d="m0 0 10 2 1 3h-4l3 12v7h-2l-1 4h-2l-1-2-3 1-5-2-4-5 1-9 3-6 2-1z" fill="#835D47"/>
<path transform="translate(465,629)" d="m0 0h2l1 3 3 2-3 1-1 5-4 3 2 4-1 5-4 4-1 2h-2v5h2l-1 4-2 4-5 1-2 1-2-2 2-3-2-7h2l1-5 3-2h-2l-2 1-2-1-1 3-1-2 4-4 6-4 1-5-1-2 5-5h2v-2h2z" fill="#AA7E65"/>
<path transform="translate(466,616)" d="m0 0 2 1-1 7h-2l-1 4-2 3h-2l-1 5-2 1-1 4 1 2-2 5-3 3h-5l-4 2-3-3 1-6h3v-3l-4 1 2-4 2-2 1-4-1-2 4-3h2l1 3 1-3h2l1-2h2l1 3 2-3 1 2 4-6z" fill="#BD9E89"/>
<path transform="translate(313,670)" d="m0 0 1 2h2v3h-2v2l4 1 2 1 1 6 3 1 2 3 5 1 3 1v2h2v4l3 1 1 5 5 3h3l3 7 7-1v2h2l1 4-3-1-3 1v-2h-3l-1 2-4-1-2-2-3-2v-2l-5 1-3-7-2-1-1-5-1-3-3 1-2-3h-2l-1 2-1-6 1-4h-3l-2-4v-3l-3 1-2-5z" fill="#312822"/>
<path transform="translate(479,393)" d="m0 0 3 1v3l2 1-3 2 5 3 5 10v2l-3 2 1 3 2 7v2l4 1 2 3 4-3 1 2-4 4h2l-1 2h-2l-1 2h-3v-2h-2v-2h2v-3l-3-1-1-2-2 3-3-9-4-3-2-6h-2v-2h3v-2h2l-3-6-1-4-2-1h2l1-6z" fill="#C8A88F"/>
<path transform="translate(430,485)" d="m0 0 9 1 9 4v2l4 1 4 2-1 5-7-4-8-4-1 6-5 4h-8l3-2-6-4-3-3h-1v-6l1-1z" fill="#6B5F56"/>
<path transform="translate(427,593)" d="m0 0 4 2 1 3 4 2 1 4-2 2h-5l-1-4h-2l2 9 5 1 2 6v6l-3 3-3 1-4-2v-2l-4 1-8-3v-1h15v-3l-3-5-8-4-2-6h3l2-3h2l-2-6 4 2 2-1z" fill="#CBAA90"/>
<path transform="translate(302,454)" d="m0 0h4l1 2h9l11 4v2h5l1 2-5 1-8-2 1-2-2 2h-4l-1 4-18 1v-3-1l-8-2v-3h5l1-3z" fill="#151311"/>
<path transform="translate(404,720)" d="m0 0 2 2-7 3v2l-4 1-1 8-3 8h-2l1 5-2 9 2 4-1 1 3 1v2h-3v2l-5 1-1-4 1-3-6-5 1-7 4-4 1-2h2l2-10h-2l4-8 10-4z" fill="#B49683"/>
<path transform="translate(272,685)" d="m0 0 4 2 3 9v10l1 6-4 14-2 4h-2l-1 2-4 2 1-7 4-4-3-1 2-6-1-17-1-13h1l1 5v7h2l-1-2z" fill="#352E29"/>
<path transform="translate(421,697)" d="m0 0h2l-1 6-2 2-2 5-8 6-3 2h-5l-4-2h-5l-1 4-1-3-2 2v-3h-2v2h-5v-2h2v-2l4-1v2h2l1-3 4-1 2-5 4 2v-2h3v2l5-1-1-4 2-5 2 4 2-3 3 3 1 2 1-6z" fill="#2C241E"/>
<path transform="translate(445,365)" d="m0 0 2 1-1 2 4-1 5 3 4 2v2l6 1 2 4 3-1 1-2 2 2v4h-3l3 3-2 3-5 1-1-3-1-2-3 1-4-2h2l-1-3-2 1v-2l-3 1-3-3h-2l-1-2-2 2-1-4h-2l-1 3h-3l-3-6h2v-2h2v2l4-3h2z" fill="#B38266"/>
<path transform="translate(368,691)" d="m0 0 8 4 2 3-1 2 8 1 1-3h4l1 2h2l1-8 2 3 4-3 1 1 2-2v6h-2l-2 4-4 1-1 3h-2l-1 2-2-4-3 1-1 2-3 1v-3l-5 1h-3l-2-5h-2l-1 3-2 2-2 4h-10l-1-4 4-1 2-1 2 3 1-2h2l-1-8z" fill="#B07F64"/>
<path transform="translate(397,489)" d="m0 0h3 2v6l1-3h2l-1 8h6l-2-2-1-5 2-2 1 3 2-1v5l7 4 3 5 3 2v2l-2 1v2h-6l-7-3-5-3v-2h-2v-2l-4-2-2-3 1-6h-2z" fill="#B27F62"/>
<path transform="translate(730,915)" d="m0 0h2l1 13 3 1 1 5 1 9-1 9h2l2 3-1 6 2 4 3 3h-4l-1 8-2 1-4-1v-2l4 1-3-3h-3l2-4-2-1 1-7h2l-2-5 1-8-2-3-1-13z" fill="#3E4240"/>
<path transform="translate(435,473)" d="m0 0h12l1 1 15 2h14l4 2v3h-11l-5 1v-2h-7l3 1v2l-21-2-12-2 2-5z" fill="#D0AC92"/>
<path transform="translate(286,483)" d="m0 0h5l-2 4 7-1 12-1 7-1 8 2v1h-7v4l2 2-2 2-6-2-3-2-4-1v-3l-8 2-1 2-5 3 1 2h-3v-2h-3l-1 4h-3v2h-3l-3-9 4-4z" fill="#161412"/>
<path transform="translate(414,489)" d="m0 0h3 1l3 9 4 3 7 1 4 1v2l-7 1 1 4 5 1-1 2h-2v2l-2 2v1l-9-1-11-3v-2l-6-2-4-5 3-1v2h2l2 3 8 3 8 2-1-3h3l-4-4v-3l-3-1-7-5 1-7z" fill="#C8A78E"/>
<path transform="translate(387,350)" d="m0 0 4 1 2 2 6 3v1l-9 2v2h-4l-2 2-6-2-9-2h-10l-4 1-2 1-1 1-12 1 1-2 3-1-3-3 10-3 3-1v2l6-1 10 2 8 2-4-3 10-2 1-2z" fill="#342922"/>
<path transform="translate(216,510)" d="m0 0h1v18l-1 11 5 7 1 8-1 10h-1l-1-16-1-4-4 1-5-3-2-2-1-12 1-7 5-4z" fill="#1D130E"/>
<path transform="translate(408,325)" d="m0 0 8 1 8 4h2l1 3 2 1-1-3 1-2h-2v-2h7l2 3-6-1 1 4 2 1 1 4 2 2 3 5 9 5 1 2 5 1 5 5 2-1v3l2 1-4 2-3-3-5-1-4-3v-2l-4-2-7-6-6-2-5-5 3-2-6-2-8-4v-3l-5-1z" fill="#555654"/>
<path transform="translate(423,672)" d="m0 0 2 2h-2v3h2l1 6-2 1-2 4-1-1-1 5-3 3-3-2-5 1 1 4-2-1-3 5-1-4-2-5-4 2-2 2-1-3 3-6 2-5h2l1 5 2-5 3 1v2h4v-5l1 2 3-1v4h2l1-3-2-5 4-1z" fill="#B28F7A"/>
<path transform="translate(475,371)" d="m0 0 5 5 1 4 2 3v3h2l1-2v5l3 3 5 4v2h2l3 5-3 5 1 3-5-1-1-5-2 1v-2h-2l-2-8h-2l-1-9-8-1-4-2v-2h3l1-10z" fill="#644432"/>
<path transform="translate(401,451)" d="m0 0m-4 1 6 1-1 3-3 3h-2l-2 5-1-4-2 8h-2l1 2 3-3 4 4 3 12-4 6-1 4h2v6l3 4-1 2-5-3v-7l-2-5 2-3v-9l-3-2v-2h-7l-5 1v-2l-4 1 4-4 2-3 1 3 3-1 1-3h2l2-5 2-8h3z" fill="#CBA990"/>
<path transform="translate(351,359)" d="m0 0h9l5 1-1 2-9 2 2 2v-2l3 1h-2v2l-14 1-2-1v2l-14 3-4 2-9 4h-6l3-4 2-4h6l4-1v-2l9-1v-2l4-2 15-1z" fill="#362A22"/>
<path transform="translate(418,610)" d="m0 0 7 1 4 4 1 3 2 2-5 2-13-1v2l-10 2h-7l2-5-2-2 1-3 14 2h3l1-6z" fill="#B58F77"/>
<path transform="translate(258,747)" d="m0 0h1v5h2l1 16h2l3 4-1 5-3 1-1 6 2 1h-3v9l-4 4-3-1 2-7 1-4v-18l-1-2v-14z" fill="#1E130E"/>
<path transform="translate(360,672)" d="m0 0h3l1 8-3 3v3l-1 2h2v2h2v-2h2v2l2 2-3 5v7h-2l-1 3-3-3-2 2-3-2 1-3h-2v-12l5-1-1-8 3-3h-3l1-3h2z" fill="#B69986"/>
<path transform="translate(380,316)" d="m0 0 8 1 3 2 1-2 6 1-1 2-4 2 7 2v2l5 2 4 2v3l4 2v2l-16-1v2l-6 2-1-2-6-2 3-1h2l-2-2 4-1-5-1 4-2 4 1v3h8l-4-1v-2l8 1-11-4v-1h-8v-4l-8-2-2-3z" fill="#4B4D4B"/>
<path transform="translate(506,720)" d="m0 0 3 1 2 3-1 5-7 5-15 15-5 6-8 7h-2l-2 4-9 7h-2l-1 2 1-5 8-7 3-1v-2h2v-2h2v-2h2l2-4 8-8h2l2-5 5-4 4-4 5-2 1-1z" fill="#BC9B84"/>
<path transform="translate(371,281)" d="m0 0 5 1 12 3h4l1-2 6 2-1 2h-6l3 2 1 5h-8l-9-3h-7l-4 1-2-3-5-1 3-3 3-1h3z" fill="#2E2A26"/>
<path transform="translate(405,453)" d="m0 0h6l1 3-8 4-1 4 2-1-1 3-1 1 9 1-2 3v3l-6 1-3 5-2-2-2-7-4-2-3 2v-3h2l1-8 2-1v4l1-7 1 3h2l1-3h2v-2z" fill="#B5917A"/>
<path transform="translate(370,595)" d="m0 0 3 2v8l-2 3h2l1-2 2 2v5l-6 1-13-3-3-5v-2l10-5z" fill="#CFAC91"/>
<path transform="translate(473,385)" d="m0 0 7 1 2 1 2 7-1 2h2v2l2 1v5l5 1 1 3-1 2 4 2h-3l1 4h2l3 15-3 3-1-4-5-1-1-2h2l-2-6h-2v-5l4-1-4-8-1-4-5-2v-3l1-1-3-5-1-4-2-1-1 4v-3h-2z" fill="#AD9686"/>
<path transform="translate(364,680)" d="m0 0 4 1 2 6h4v2l5 2 4 2h8l1 1 1-3 2 1v5h-2v3l-5-1-2 3-4-1-5-1-1-4-6-3-5-2 1-3h-2v2h-2v-2h-2v-4z" fill="#C6A58D"/>
<path transform="translate(204,536)" d="m0 0 1 2h2l2 9 1 2 1-2h6l1 1v9h-2l-2 7-1-2-2 1v8l-3 2v-12l-6-16v-8z" fill="#1D1510"/>
<path transform="translate(519,722)" d="m0 0h7l5 7 3 6-6-2-2-1-1 3h-3l-2-2-8 1-4-1-1 3h-5l2-4 5-3 5-6z" fill="#2A241F"/>
<path transform="translate(431,668)" d="m0 0 5 2v3h3v2l-3 1-2 5-3 1v4h-3l-4 8h-3v5h-1l-2 7-2-4v-2h-2l-3 3-2-9 6-2 2 1 2-2 1-4 5-5-1-3 4-1h2l2-7z" fill="#674E3E"/>
<path transform="translate(373,615)" d="m0 0 2 2 2-2 1 3h6l1 1h14l-1 2h-4v2l-10 3h-2v2l-5 1h-9l-2-1 1-5 3-3h2z" fill="#B98A6E"/>
<path transform="translate(394,289)" d="m0 0 9 1 9 4v3l-3 1 2 2h-4v2l6 2v2l-7-1-8-3 4-1 4 1v-2l-15 1h-2v1l-7-1-10-2 4-1h10l6-1v1h10l-8-1-5-2 3-2h3z" fill="#525452"/>
<path transform="translate(519,477)" d="m0 0 3 2 3-1 1 3-2 4h-3v4h-2l-1 6h-2l-1 8-2 11-4 1v-3h2l-2-8-1-15 2 1 1 3 1-7 5-1v-3h2z" fill="#644635"/>
<path transform="translate(431,331)" d="m0 0 6 3v2l6 2 4 3v2l3 1v3l6 5 2 1v2l4 1 5 5v2l-3 1 2 4-2 1v-3l-5-1v-2l3-2-10-8-4-1v-2l-5-2-7-4-2-5-2-3 1-2-3-1z" fill="#312D29"/>
<path transform="translate(489,631)" d="m0 0 1 3v7l-4 6-1 8-5 5-2 4h-2v3l-5-1-1-6 2-4 3-1 2-4 1-6h3l2-3 2 1v-3h2v-8z" fill="#4D4A45"/>
<path transform="translate(428,685)" d="m0 0 5 1-2 3 1 4 5-2-1 5-9 7-3 1v2h-2l-3 6-3 1-1 3-5 3-7 2 1-3 9-5 5-4 2-5 3-7-3-1 1-2 3-1z" fill="#3E2F26"/>
<path transform="translate(337,580)" d="m0 0 4 1v2h2l2 4 2 2 5-8h8l2 2-10 1v5l-4 4h-4v2h-2v4h-2v-4h-3l-2 4-5-1h-2l-1 2v-4l5-4 5-5z" fill="#312822"/>
<path transform="translate(413,311)" d="m0 0 5 2 2 4 5 3v1l-9-1v2h8l5 2 6 2 5 3-4 1-5-2-4-1v2h2v5l-3-1v-3l-3 1-7-4-6-1-1-6h5v-3l-2-1h4l-5-2 2-1z" fill="#1B1916"/>
<path transform="translate(373,587)" d="m0 0h1v5l5-1 5 2 1 4-5 1v3l-1 5h-3l-1 2h-4l1-5v-6l-2-1-8 6h-4v-2l5-3 3-5h2l1-3z" fill="#B5937E"/>
<path transform="translate(256,393)" d="m0 0h3l-1 16-4 13-2 6h-2v6l-4 6-2-1 3-5 1-12 2-6 2-12z" fill="#1E130E"/>
<path transform="translate(320,467)" d="m0 0 13 1 4 2 4 6 1 5-1 2-4 1 3 3-1 2-4-2v-2l-3-1v-2l-6-2-1-2 7-1-4-3v-2l-14-3v-1z" fill="#674634"/>
<path transform="translate(316,486)" d="m0 0 7 1v8l-3 4-5 1 1 3-9-3-5-5-1-4 1-3-2-1 5 1v3l3-1 3 3h4l1-1-1-5z" fill="#413832"/>
<path transform="translate(391,342)" d="m0 0h5v2l5-1 7 2v3l6 1 6 2-2 4 3 3-9-3-11-2-1-3-16-4 2-3h5z" fill="#464541"/>
<path transform="translate(519,414)" d="m0 0 2 2 1 3 1-3 1 5h2l2 4-3-1v10l-2 5v3l2 1v3l4-1v7l-6-5-3-1-1-5-1-3h-2l-1-7 1-3h2v-2h-3v-6l4 4 1 3 1-4-2-5z" fill="#4C4C48"/>
<path transform="translate(481,299)" d="m0 0h2l3 3 6 4 1 3 5 1v2l3-1-4-3v-2l-2-1 3-1 5 4v3h2l1 3v3 2l3 1 2 5-2 1-5-4v-3l-4-2v-2l-6-1-6-4-5-4-4-2-3-2 5-1z" fill="#5B5F5D"/>
<path transform="translate(341,430)" d="m0 0h5v5l-4 2 1 3-2 2 1 3-1 2h3l1-2 2 3-1 2h3v4h2l-1-3 2-1v3h2l-1 3-7 1-1-5h-3v-2l-4 1-1-7-2-1v-3l-2-1 2-7 1 2 3-1z" fill="#B59581"/>
<path transform="translate(411,560)" d="m0 0 5 1 5 4 1 4 2 1v3l5 1 1 6-8-1-3-2h-3l-4-8v-2h-2l-1-5z" fill="#B38063"/>
<path transform="translate(343,544)" d="m0 0 4 2 3 5-1 10-9-1-1 4-3 3v-7l-2-1 1-5 2-1 3-5h2z" fill="#131413"/>
<path transform="translate(294,488)" d="m0 0h5l-4 4h-2l1 4-1 2h-3v5l-4 2-1 2-5-1-3-3-6-2 1-9 1-2 2 1 2 9h3v-2h3l1-4h3v2l2-1-1-2 6-3z" fill="#302721"/>
<path transform="translate(458,772)" d="m0 0 1 3-14 10-19 11-4 2-3-1-2-1 2-5 18-6h2l3-3 3-2h3v-2l6-3z" fill="#C7A78F"/>
<path transform="translate(282,468)" d="m0 0h13l-1 2h-6v2l-2 1 1 2h-10l1 3-4-1v2l-4 1-1 4-8 1v-4l3-2 2-4 4-2h3v-2l5-1z" fill="#362A22"/>
<path transform="translate(508,478)" d="m0 0h3l1 3 2 2-2 10-2 1-1-4 1 14 1 8h-2v3l3-1v12l-1-2h-2l-2 2v-17l-1-2v-16l1-12z" fill="#7E5C48"/>
<path transform="translate(473,1202)" d="m0 0 3 3 3 23 3 25 2 14 1 13h-2l-4-27-6-45z" fill="#818786"/>
<path transform="translate(359,457)" d="m0 0h2l1 2h5l2 2 8-1h3l-1 3 4-1-1 4-2 5-4-1-3-2v-2h-2l-1 4h-5v-3l-3 1 2-4-2-1-1-1-3 1-3-1v-2z" fill="#B7957F"/>
<path transform="translate(371,560)" d="m0 0 2 2 1 7 4 5 1 7-1 3 2 1v1l6 2-2 5-10-1v-6l2-6-5-4-3-4v-5h2z" fill="#C9A88F"/>
<path transform="translate(376,611)" d="m0 0 17 1 7 2-2 1-1 5h-12l-7-2-1-2-2 2h-2l-1 2h-2l1-6 5-1z" fill="#C5A58D"/>
<path transform="translate(412,458)" d="m0 0h10l2 5 5-1h5l-1 5-2 1h-7l-4 1v-2h-5v-2l-5 1v-2l-4 2-5 2 2-3-2-1 7-5 1 2 3-1z" fill="#644736"/>
<path transform="translate(485,607)" d="m0 0h1l1 7-1 7 2-3v7h-2l-1 5-2 2h3v2h-2l1 3-3 4h-2l-1 4-3 4-1-5 1-4 2-7-1-4h2v2h2l-1-4 2-3v-3h2v-9z" fill="#A98A76"/>
<path transform="translate(302,471)" d="m0 0h18l4 5-5 1-18 2h-5v-3l-1-3z" fill="#B27F62"/>
<path transform="translate(334,700)" d="m0 0 4 1v3l6 1 4 1 3 7 7-1v2h2l1 4-3-1-3 1v-2h-3l-1 2-4-1-2-2-3-2v-2l-5 1-3-7-2-1z" fill="#2F2620"/>
<path transform="translate(430,479)" d="m0 0 10 1 11 4 9 2v2h3v2l4 2 1 3-4 1-8-3-4-2v-4l-5-2-10-3h-8l-3 2-4-1-2-2z" fill="#B17F62"/>
<path transform="translate(440,693)" d="m0 0 1 4h-2l-2 4-3 1-2 5h-2l-1 3-5 2-3 3-2 1-2 3-1-2-3 1v-2h2l1-4h3l3-6h2v-2l11-8h3v-2z" fill="#C5A38A"/>
<path transform="translate(477,679)" d="m0 0 3 4 2 6 8 11 4 6 2 4 3 1-3 1-8-8v-2l-4-2h-6l-2-13v-7z" fill="#B69986"/>
<path transform="translate(359,632)" d="m0 0h4l1 3 2-2 5 1v12l-3 1-5-3v-2h-2l-1 2-2-1-2-3-3-1v-3l3-1z" fill="#C4A48C"/>
<path transform="translate(496,390)" d="m0 0 5 4 1 6 2 3 2-1-1 7 4-1 1-2h4l2 1 2 13-1-2h-3l-2 4-1-6-3 1-2-4-3-1v-6l-2-5h-2l-3-8z" fill="#50514F"/>
<path transform="translate(397,706)" d="m0 0 4 5 8-3-1 4 1 1 4-4-1 6-5 3h-5l-4-2h-5l-1 4-1-3-2 2v-3h-2v2h-5v-2h2v-2l4-1v2h2l1-3 4-1z" fill="#2C241F"/>
<path transform="translate(452,670)" d="m0 0 4 2v2l5-4 2 1v2l-7 5-3 4-5 2-1 2-5 2h-3v-2l-2-1v2l-2-1 3-5 2-1v3l5-5 2 3 3-3h-2l-1 2v-4h2l2-5z" fill="#84614D"/>
<path transform="translate(524,426)" d="m0 0h2v2l5 1 1-2h3l-1 6h-3l2 7-1 2h-2l1 6-2 2-1-4h-3v-3l-3-1 1-4 1-8z" fill="#5A5D5B"/>
<path transform="translate(353,277)" d="m0 0 6 1-3 1v2l7-1 1-3h6l-4 1v3h2v2h-9l1 1-3 1h-10l-4-1-5 1h-5v-2l6-1-1-2 4-2h3v2h5 3z" fill="#2B241F"/>
<path transform="translate(498,434)" d="m0 0 3 1 2 6h1l2 7 2 10 1 10-1 10-2-2-2-20-1-5h-2v-3h-2l-3-6 1-5 1-1z" fill="#A19184"/>
<path transform="translate(390,351)" d="m0 0h10l1 1 14 3 4 2v2l2 1h-5v2l-10-1-5-3-2 1v-3l-6-2z" fill="#5B4E45"/>
<path transform="translate(467,660)" d="m0 0 1 3 5 1 1 4-5 6-5 3-3 3-7 2 2-6 4-2 3-1v-2l-3-1v-2h2l1-1z" fill="#674937"/>
<path transform="translate(335,558)" d="m0 0 2 2v12l3 5v3l-5-1-8-7 1-4 2-6h2l1-3z" fill="#1A130F"/>
<path transform="translate(505,394)" d="m0 0 2 2 3-2 2 3v3h2v2l3-1 1 3-1 1v7h-1l-1-5-2 4-1-4-7 2-1-4-4-8 2-2 2 1z" fill="#332A23"/>
<path transform="translate(450,452)" d="m0 0 1 2h6l8 6 2-1v3l5 1 1-2 3 3-2 4 3 1-1 2-6-4-5-1-3-4-10-4-3 1-2 1-3-2 2-4z" fill="#D0AD92"/>
<path transform="translate(463,351)" d="m0 0 7 1h7v2l-4 1-1 2 9 1 1 4-5 1v4l3 1-4 1-5-4-4-5v-3l-4-1-1-3z" fill="#302721"/>
<path transform="translate(471,1176)" d="m0 0h1l3 21v7l-1 4 9 67v5l-2-3-8-58-1-7v-21z" fill="#535755"/>
<path transform="translate(508,519)" d="m0 0h1v5h2l-1 14v9l-2 8-2 5h-1l-1-10 3-24z" fill="#7C5742"/>
<path transform="translate(388,346)" d="m0 0 14 4v1l-10 1-4-1-4 2 3 1-11 2 3 3-9-2-3-3 4-2 6-4 7 1z" fill="#191310"/>
<path transform="translate(414,489)" d="m0 0h3 1l3 9 4 3 7 1 4 1v2l-10 1-4 2-1-4-3-1-7-5 1-7z" fill="#C6A58D"/>
<path transform="translate(429,481)" d="m0 0h8l10 3 5 3 2 4 6 2-4 2-8-3-1-2-8-3-13-2v-2z" fill="#B8947D"/>
<path transform="translate(430,485)" d="m0 0 9 1 2 2-1 1h-5l-1 4-3-2v2l4 2-7 1-9-3v-6l1-1z" fill="#463226"/>
<path transform="translate(440,491)" d="m0 0 6 3 1 3-1 2 3 1-4 1-2-1v2l4 1 5-1-2 4h-7l-3-1h-4v-2l-2 1h-7v-1l7-2 3-3h2v-6z" fill="#D0AD92"/>
<path transform="translate(411,928)" d="m0 0h11l9 4 3 2v2l-5-2h-2l7 7 3 5-1 2-3-2v-3l-3-1-5-5-8-4-9-3z" fill="#787E7D"/>
<path transform="translate(516,404)" d="m0 0 3 1 2 4h2l1 4-1 9-2-2 1 6-2 3-4-8-1 5h3v2h-2l-1 3-2-6-1 6-2-1 1-7 3-9 1 4 2-1z" fill="#352E29"/>
<path transform="translate(311,458)" d="m0 0h9l7 2v2h5l1 2-5 1-8-2 1-2-2 2h-4l-1 4-18 1 2-2h6v-2h4z" fill="#1A1917"/>
<path transform="translate(262,460)" d="m0 0h2v2l8-1 3 2-14 1 1 4-1 2 4 1 1 1 2 1-2 2-5 2-3 3-4-2v-6l1-2h2l-1-3 2-3h2z" fill="#1D130E"/>
<path transform="translate(475,464)" d="m0 0 8 2 2 4 2 3-3 1h3l-2 5 2 2-5-1-10-5v-2l-5-1v-1h7l3 1-1-3-2-1z" fill="#B9957E"/>
<path transform="translate(519,436)" d="m0 0h1l1 10v2h1v10l-3 2v-3l-2 1v-4h-2l-1 2-1-8h-2v-5l2 1 4-4 2 1z" fill="#575755"/>
<path transform="translate(450,343)" d="m0 0 5 1v2l6 2h3l6 4-2 1-4-1-1 4 4 1 3 5-1 3-8-9-3-1v-2l-5-2-4-4-1-3z" fill="#484642"/>
<path transform="translate(465,629)" d="m0 0h2l1 3 3 2-3 1-1 5-5 4h-2l-2 6-5 2-1-4 3-1 1-5-1-2 5-5h2v-2h2z" fill="#AF8368"/>
<path transform="translate(392,372)" d="m0 0 6 2 5-1 4 3-7 1h-8l-4-1h-4v2l-11 4-9 1v-3l8-3 16-4z" fill="#B59885"/>
<path transform="translate(427,593)" d="m0 0 4 2 1 3 4 2 1 4-2 2h-5l-1-4h-2l1 9-3-3 1-3h-2l-2-5-1-6 4 2 2-1z" fill="#CDAA90"/>
<path transform="translate(416,795)" d="m0 0 4 2v2l-17 8v-2l3-2h-4v-2h-8l-2-2 8-3 1 1h11z" fill="#B59885"/>
<path transform="translate(448,325)" d="m0 0 4 1 5-1 3 2 2 2h3l2 4-3 2-3-1 4 3v2l-6-2-4-1-5-3-4-4 5 1 4 1-8-4z" fill="#282420"/>
<path transform="translate(464,1132)" d="m0 0h1l1 12h2l3 22 2 25v9h-1l-8-60z" fill="#747978"/>
<path transform="translate(452,459)" d="m0 0 8 4-2 2 4 6-7 1-5-1v-1l3-1h-5v-2h-2v-3l-9-2-2-2 11 1 5 3 1-1z" fill="#8A8884"/>
<path transform="translate(397,336)" d="m0 0 11 1 3 1v3l2 1h-3-4l7 2 1 4-3 1-3-1v-3l-12-1 1-2-3-2v-2h3z" fill="#5A5D5C"/>
<path transform="translate(440,331)" d="m0 0 9 3 4 3 6 1 4 3h-2v2l9 3 1 2-12-4 1 4-5-2v-2l-6-2-3-6-6-4z" fill="#403E3A"/>
<path transform="translate(286,483)" d="m0 0h5l-2 3-5 2-1 3 3 1-2 1-1 5h-3v2h-3l-3-9 4-4z" fill="#141312"/>
<path transform="translate(472,639)" d="m0 0 2 1 2 5 2 2-1 6-4 4h-2l-1-3-2-1v2l-3 1-1 2h-2l2-6 2-1 1-3 4-1z" fill="#7C5945"/>
<path transform="translate(410,290)" d="m0 0 6 1 6 3 9 5 4 1 5 4v2l-8 1v-2l-5-2-5-1-1-3 2-1-13-7z" fill="#221F1C"/>
<path transform="translate(373,706)" d="m0 0 6 1v2h-2l-1 3-4 1-5-2-5 3-2 2v-2l-5-1-5 1-1-5 4-1v3h3l1-3h11l3 1z" fill="#785440"/>
<path transform="translate(444,662)" d="m0 0 2 2-1 3 4-1v2l2 1h-3l2 5-1 2h-2l1 2h2l-1 3-5 1 2-1-1-2h-4l-1-5 2-10z" fill="#AC7D62"/>
<path transform="translate(352,353)" d="m0 0h2v2l6-1 3 1v2l-4 2-4 1-2 1-1 1-12 1 1-2 3-1-3-3 10-3z" fill="#2D2520"/>
<path transform="translate(408,325)" d="m0 0 8 1 8 4h2l1 3 2 1-1-3 1-2h-2v-2h7l2 3-6-1 1 4 2 1-1 3-9-1-4-3-5-2v-3l-5-1z" fill="#383430"/>
<path transform="translate(299,479)" d="m0 0h7l-1 3 14 1 1 1 11 2 4 3-3 1 3 4v3l-4-1-1-5-6-3-1 4v-6l-25-2z" fill="#523A2B"/>
<path transform="translate(447,357)" d="m0 0 8 6h4v2l5 1-2 1 3 5-5 1-4-5-1-2-3-1-3-3-1 3v-4l-4 3h-3l-1 4h-1v-5h2l-1-3 1-2h5z" fill="#694835"/>
<path transform="translate(421,668)" d="m0 0 4 1h-2l1 3-3 6-3 1 2 4-1 3h-3l-1-3-2 1-1 3-3-1v-4l1-5 8-3 2-3z" fill="#CBA990"/>
<path transform="translate(377,709)" d="m0 0 4 1v2l2 1-2 3h-3v7h-2v-6l-2-1v2h-2v-4l-9 3-2-1 2-4h3l1-2 6 2h2l1-2z" fill="#3A2C23"/>
<path transform="translate(211,547)" d="m0 0h6l1 1v9h-2l-2 7-1-2-2 1v8l-3 2v-12l-1-4 4 2 1-2h2l-3-7z" fill="#312923"/>
<path transform="translate(409,330)" d="m0 0 12 6 2-1 7 2-3 3 1 3-13-1v-2l-3-1 2-1-5-5z" fill="#332E29"/>
<path transform="translate(467,363)" d="m0 0h3 3v4l9 1h2l-1 7 1-1 2 4v2h-3v-3l-5-2-2-3h-4l-5-6zm20 13 1 2-2-1z" fill="#332822"/>
<path transform="translate(311,450)" d="m0 0h3v2h12l1 3h2l-1 3h-6-3l-9-1-4-1v-2h3v-3z" fill="#4B3325"/>
<path transform="translate(435,309)" d="m0 0 2 1v2l7 1-1 4 4 1-4 3-10-1-2-2v-2l-3-1 1-3h6z" fill="#322D28"/>
<path transform="translate(404,693)" d="m0 0h1v8l2-5 3 2-1 9-5 1v-2l-4 1v-2l-3-1v-3h2l2-5h2z" fill="#6F5341"/>
<path transform="translate(418,305)" d="m0 0 7 1 3-1 5 3v3l3 1-4 1-13 2-6-4v-1h6l3 1 4-1-8-4z" fill="#575957"/>
<path transform="translate(495,407)" d="m0 0 3 1v3l2 1-1 7h2l1 7 1 4v3l-2-2-3 2v-6l-2-2v-9h-2l-1-4 3-1z" fill="#825D48"/>
<path transform="translate(529,476)" d="m0 0h2l3 3-1 2-6 2v2l-2 1-1 5-3 7h-4l-1-3h2l1-6h2v-4l3-1 3-6h2z" fill="#AF8F7B"/>
<path transform="translate(432,319)" d="m0 0 13 1 2 1-1 2 1 1h5v2h-4l10 5-1 2-6-2-5-1-6-2-1-4-3-2-5-1z" fill="#4F504E"/>
<path transform="translate(422,361)" d="m0 0 10 2 6 3 1-3v5h-2v2h-3v-2l-4-1v2l-6-2-2-1v2h-2v-2l-3-1v-3h5z" fill="#815B45"/>
<path transform="translate(446,361)" d="m0 0 6 2 3 3h2l3 5 5 2v2l-6-1-4-4-1 4v-5l-8-1-1-1-4 3h-2l2-6z" fill="#835D47"/>
<path transform="translate(390,297)" d="m0 0 2 1h15v4l6 2v2l-7-1-8-3 4-1 4 1v-2l-15 1h-2v1l-7-1-10-2 4-1h10z" fill="#575B59"/>
<path transform="translate(305,820)" d="m0 0 4 5-1 4 4 2h-5l-1-1-12-1-7-3 3-1 1-2 9 1 1 1z" fill="#634432"/>
<path transform="translate(350,502)" d="m0 0 3 1-1 7h-2v2h2l1 8-2 8h-3v-24z" fill="#131413"/>
<path transform="translate(513,509)" d="m0 0h1l2 9-1 12-3 1 1 13-3 3-1-10 2-11z" fill="#BD967C"/>
<path transform="translate(352,363)" d="m0 0 3 1 2 2v-2l3 1h-2v2l-14 1-2-1v2l-14 3-4 2-9 3 1-2 4-2 1-2 12-3h3v-2l14-2z" fill="#634331"/>
<path transform="translate(418,612)" d="m0 0h5l3 3v4l-7 1-15 1 2-2 6-2h4z" fill="#624432"/>
<path transform="translate(437,464)" d="m0 0h9v3h2v2l7-1v3h10v1l-11 1-11-1-3-3-5-2z" fill="#7F5B46"/>
<path transform="translate(405,453)" d="m0 0h6l1 3-8 4-1 4 2-1-1 3-4 2-5-1 2-2v-5l3-4h2v-2z" fill="#B18368"/>
<path transform="translate(421,355)" d="m0 0h8l1 3 5 3v-2h2l1 7-9-3h-5l-1-1-3 1 2-6z" fill="#604332"/>
<path transform="translate(473,385)" d="m0 0 7 1 2 1 2 7-1 2h2v2l2 1v5l5 1 1 3-4 3-3-5v-3l-5-2v-3l1-1-3-5-1-4-2-1-1 4v-3h-2z" fill="#A7816A"/>
<path transform="translate(306,370)" d="m0 0h2v3h2l-1 3-2 1 1 3-12 3-4-1 2-2 6-2-4-2 10-5z" fill="#1D130F"/>
<path transform="translate(392,357)" d="m0 0h7l1 1 2-1 4 2-2 1v3l-16 1-1-3h3l-1-3z" fill="#644838"/>
<path transform="translate(477,632)" d="m0 0 2 2-4 10-2-4-1-1v6l-3 3h-2l-1 2 1-5-3 2-2-4 4-2 3 1v-3l2-1 1-4h2l1 3z" fill="#A88E7E"/>
<path transform="translate(531,486)" d="m0 0h2l1 3 1 18-2 6h-1l-1-14-2-6v-6z" fill="#B38063"/>
<path transform="translate(416,687)" d="m0 0h3l2 4-2 1-2 3-3-2-5 1 1 4-2-1-3 5-1-4v-7l3-1 1 1 3-3h2v3l2-1z" fill="#9D8A7C"/>
<path transform="translate(373,623)" d="m0 0h9v5l-5 1h-9l-2-1v-4z" fill="#CEAB91"/>
<path transform="translate(295,480)" d="m0 0h5l-2 1v3h13l1 2h-10l-9 2-5-1 2-3-2-2z" fill="#443024"/>
<path transform="translate(400,683)" d="m0 0h2l1 5 2-5 3 1 1 3-1 5-4-1v5l-2-3-4 2-2 2-1-3 3-6z" fill="#C4A48C"/>
<path transform="translate(504,554)" d="m0 0 2 4 2-1-1 14-2 3-3-4v-2l-2-1 3-12z" fill="#835D47"/>
<path transform="translate(430,329)" d="m0 0 8 1 5 3 5 5 2 4-3 1-4-4-6-3v-2l-5-2-2-1z" fill="#606463"/>
<path transform="translate(414,300)" d="m0 0h3l1 2h2l-1 4 9 4-2 1-3 1-2 1v-2h-10l-2-3 4-2 1-2v-3z" fill="#434340"/>
<path transform="translate(489,602)" d="m0 0 2 4h2l1 5-3 6-1 4-4 1-1-2 1-10 3-2z" fill="#AB9180"/>
<path transform="translate(479,754)" d="m0 0 2 2-6 6h-2l-2 4-9 7h-2l-1 2 1-5 8-7 3-1v-2h2v-2h2v-2z" fill="#C09E86"/>
<path transform="translate(431,668)" d="m0 0 5 2v3h3v2l-3 1-2 5-3 1v4l-4-1-3-6 4-1h2l2-7z" fill="#855F4A"/>
<path transform="translate(450,652)" d="m0 0 4 2-3 3-2 5v2l-1 3h-3l-1-4-1-2h-2l-1-5 6 1 1-3h3z" fill="#BC9B86"/>
<path transform="translate(507,504)" d="m0 0h3l1 8h-2v3l3-1v12l-1-2h-2l-2 2v-17l-1-2z" fill="#805C47"/>
<path transform="translate(429,336)" d="m0 0 5 2 2 2 3 5 7 4-1 2-16-8-4-4 4-2z" fill="#50514E"/>
<path transform="translate(466,331)" d="m0 0 8 1v1h-7zm0 2 6 1 3 4h-3l4 7-5 1-2-2 1-2-5-1 2-5h-2z" fill="#322D29"/>
<path transform="translate(394,329)" d="m0 0m-4 0 4 1v3h6l1 3h-4v2l-6 2-1-2-6-2 3-1h2l-2-2 4-1-5-1z" fill="#434340"/>
<path transform="translate(823,126)" d="m0 0h1v8l-2 11-5-1v-6l2-3 2-7z" fill="#89908F"/>
<path transform="translate(310,676)" d="m0 0 5 3h2l2 7h3l-1 6-1-3-3 1-2-4-6-5z" fill="#141312"/>
<path transform="translate(418,610)" d="m0 0 7 1 4 4 1 3 2 2-5 2h-15l-1-2 13-1h2l-2-5-1-1h-5l-3 4 1-6z" fill="#B28063"/>
<path transform="translate(407,623)" d="m0 0h5l-2 5-2 2h-4v2l-3-1 1-4-4 1 2 3-4-1-2-2 3-3z" fill="#CEAB91"/>
<path transform="translate(411,453)" d="m0 0 11 1-2 2 2 2-9 1-4 3-2-1-3 1-3-2 9-4-3-2z" fill="#7E5E4A"/>
<path transform="translate(284,659)" d="m0 0 12 1 5 1v3h2v2l2 1-1 3 2 1-4 1v-4h-2v-2h-3l-1-3-9 1-1-4z" fill="#1E130E"/>
<path transform="translate(414,449)" d="m0 0 4 2 11 5v1l-10-1v-1l-13-1h-3l-2-2 3-2z" fill="#C9A88F"/>
<path transform="translate(401,336)" d="m0 0h13v2l4 1-3 1 1 2 9 2-4 1-1 2-14-4-2-2h6 1v-3l-10-1z" fill="#3A3936"/>
<path transform="translate(389,325)" d="m0 0h10l-2 2 10 4-3 1-6-2v2l6 1-4 1-6-1-1-3-5-1z" fill="#27221D"/>
<path transform="translate(519,722)" d="m0 0h7l5 7 3 6-9-3v-3l-2-1 2-2-2-1v-2h-2l-1 3h-2v-2l-4-1z" fill="#404341"/>
<path transform="translate(435,675)" d="m0 0h3l-2 11 1-1 3 1-1 3-7 1h-2l2-4-1-3-2-1 5-3z" fill="#624432"/>
<path transform="translate(481,632)" d="m0 0h5v2h-2l1 3-3 4h-2l-1 4-3 4-1-5 1-4 2-6z" fill="#857265"/>
<path transform="translate(482,603)" d="m0 0 2 2-1 9-3 8h-2l1 5-4 1v-4l-2 2 1-5 4-1v-7z" fill="#AD7E63"/>
<path transform="translate(352,573)" d="m0 0 8 3v4h-10l-4-2v-4z" fill="#1D130E"/>
<path transform="translate(489,392)" d="m0 0 5 4v2h2l3 5-3 5v3l-2-2 1-5-4-1v-3l-2-1-2-5z" fill="#644635"/>
<path transform="translate(473,1202)" d="m0 0 3 3 3 23 1 5v9h-1l-1-13h-2l-3-21z" fill="#6C716F"/>
<path transform="translate(506,526)" d="m0 0h1l-1 18-4 18-2 1-1 5h-1v-6l2-2 3-20 1-1z" fill="#B69883"/>
<path transform="translate(299,488)" d="m0 0h3l1 7 2 5-4-1-7-3-1-4z" fill="#595B59"/>
<path transform="translate(410,698)" d="m0 0 3 4-1 8-5 5-1-3 2-2-8 2-1-4h2v-2h3v2l5-1-1-4z" fill="#423228"/>
<path transform="translate(370,700)" d="m0 0h2l2 5 8-1-1 5-7-2-4 3-4-2 1-6h2z" fill="#835D47"/>
<path transform="translate(476,666)" d="m0 0 2 1-1 3 2 1-1 1v6l-2 7-2-1-1-11-2 2-2-1 2-4z" fill="#C5A58D"/>
<path transform="translate(336,369)" d="m0 0m-4 1h4v2l-8 5-5-1-5 3v2l-6-1 5-4 10-4v-1z" fill="#835D47"/>
<path transform="translate(388,299)" d="m0 0 4 1h14v2h-5l7 3-1 3-8-2v-2l-10-2z" fill="#29231F"/>
<path transform="translate(345,706)" d="m0 0h3l3 7 7-1v2h2l1 4-3-1-3 1v-2h-3l-1 2-4-1v-6h-2l-1-4z" fill="#413025"/>
<path transform="translate(421,600)" d="m0 0 3 2v3h2l1 5 1 4-10-5-2-6h3z" fill="#B69782"/>
<path transform="translate(324,488)" d="m0 0 4 1 3 2v6l-11 2z" fill="#B09C8C"/>
<path transform="translate(411,462)" d="m0 0 2 1-3 1 5 1v2h5v2l4-2h7l1 2-9 1h-10v-1l-8-2 3-4z" fill="#886957"/>
<path transform="translate(461,679)" d="m0 0 1 2h-2l-1 3h-2l-1 4-9 5h-6l5-4 4-1 1-4 5-1v-2z" fill="#C4A087"/>
<path transform="translate(466,616)" d="m0 0 2 1-1 7h-2l-1 4-2 3h-2l-1 5-4 2 1-6h-1v-7h2l1 3 2-3 1 2 4-6z" fill="#A77A60"/>
<path transform="translate(454,485)" d="m0 0 6 1v2h3v2l4 2 1 3-4 1-8-3-4-2v-3l4 1v2l5 1v-2l-5-2z" fill="#B17F62"/>
<path transform="translate(468,476)" d="m0 0h9l4 2v3h-11l-5 1-1-4z" fill="#D0AD92"/>
<path transform="translate(511,397)" d="m0 0 1 3h2v2l3-1 1 3-1 1v7h-1l-1-5-2 4-1-4-4 1v-10z" fill="#26211D"/>
<path transform="translate(442,373)" d="m0 0h2l1 3 2-2 6 4v2l-3 1-1-1-1 4-3-3-2 1-3-3-1-3z" fill="#C2A28B"/>
<path transform="translate(442,638)" d="m0 0h5v4h-2l-1 5h7l-5 5-3 1-3-3 1-6h3v-3l-4 1z" fill="#B68F77"/>
<path transform="translate(432,456)" d="m0 0h6l5 3h5l1-2 4 1-1 4 2 3-6-1-2-2-15-4z" fill="#AA9789"/>
<path transform="translate(500,562)" d="m0 0h1v7l-3 12v5l-1 2-1 4-1-2v-10l2-12h2v-5z" fill="#B4937E"/>
<path transform="translate(416,486)" d="m0 0 4 1v5l5 5 7 3v1l-7 1-6-5-2-7-2 1v-3l-2-1z" fill="#77533E"/>
<path transform="translate(421,487)" d="m0 0h12l4 2h-2l-1 4-3-2v2l4 2-7 1-3-2v-5z" fill="#1A1815"/>
<path transform="translate(285,486)" d="m0 0 8 1h4l-1 2-7 5 1 2h-3v-2l-3-1-1-1v-3-2z" fill="#141413"/>
<path transform="translate(311,479)" d="m0 0h12l4 3v2l-17-1v-3z" fill="#A9988A"/>
<path transform="translate(342,378)" d="m0 0 3 1v3l6-1 2 1-1 4-5-1-3-1v2l-6 1-1-3h2l1-4z" fill="#B59784"/>
<path transform="translate(342,278)" d="m0 0h3v2h5l4 1 2 2-13 1-5 1h-5v-2l6-1-1-2z" fill="#3F4240"/>
<path transform="translate(454,459)" d="m0 0 5 1 5 3 3 8h-5l-4-4v-2l-2-1 1-1z" fill="#B99983"/>
<path transform="translate(425,313)" d="m0 0 6 2 5 2-4 3-4 1-9-4v-2z" fill="#595C5B"/>
<path transform="translate(458,772)" d="m0 0 1 3-14 10-6 3-2-2 5-4 3-2h3v-2l6-3z" fill="#C5A58D"/>
<path transform="translate(454,640)" d="m0 0 3 1-2 7-3 3-4-1 1-2h-6l3-5 6 1z" fill="#B89781"/>
<path transform="translate(371,466)" d="m0 0h2l5 6-2 4h-3v3l-4-1 3-5h-6v-2l3-3h2z" fill="#CFAC91"/>
<path transform="translate(360,672)" d="m0 0h3l1 8-3 3v3l-2 2-2-4v-4l3-3h-3l1-3h2z" fill="#B69986"/>
<path transform="translate(486,625)" d="m0 0h2l1 7h-2l1 6-1 2h-2v3h-2l-2 3-2-2 1-3 4-4v-3l1-1-3-1 3-3z" fill="#5A5956"/>
<path transform="translate(462,617)" d="m0 0h4l-1 5-3 5-3 1-2 2-1-10 4-1 2 2z" fill="#BFA08A"/>
<path transform="translate(409,468)" d="m0 0 3 1-2 2v3l-6 1-3 5-2-2-1-8h9z" fill="#B99B87"/>
<path transform="translate(520,432)" d="m0 0 2 1 1 9 2 1v3l4-1v7l-6-5-3-1-1-5h-1v-8z" fill="#4C4A46"/>
<path transform="translate(463,351)" d="m0 0 7 1h7v2l-4 1-1 2h-2l1 4h-3l-1-4-4-1-1-3z" fill="#372D26"/>
<path transform="translate(355,693)" d="m0 0 3 3 5 2-2 6h-2l-2 2-3-2 1-3h-2l1-5z" fill="#C7A68E"/>
<path transform="translate(348,625)" d="m0 0h2l3 3 5 1v1l-11 1-3 1v2h-2v2h-2l-1-3h-3l1-3 5-1 6-1z" fill="#835D47"/>
<path transform="translate(392,585)" d="m0 0 1 2 3 1-1 1 3 2 2 4-2-1-2 3-1 1h-2v-3h-2v3h-2l-1-6 4-1 1-2-3-1h2z" fill="#B59480"/>
<path transform="translate(440,491)" d="m0 0 4 2 1 5-6 4-5 2h-7v-1l7-2 3-3h2v-6z" fill="#E1B99B"/>
<path transform="translate(493,415)" d="m0 0 3 1 3 15-3 3-1-4h-2v-5-3z" fill="#A28674"/>
<path transform="translate(351,359)" d="m0 0h9l5 1-1 2-12 2-9 2-4-3 13-2z" fill="#4B3325"/>
<path transform="translate(426,469)" d="m0 0h8l8 1 6 2 5 1v2h-5l-1-1h-15v-2h-3v-2z" fill="#AD907D"/>
<path transform="translate(380,316)" d="m0 0 8 1 3 2 1-2 6 1-1 2-5 1v2l-13-3-2-3z" fill="#3F3F3C"/>
<path transform="translate(396,699)" d="m0 0 2 3v2l3 3-2 1-1 4-1-3-3 3-4-3 1-4 3-2z" fill="#71503D"/>
<path transform="translate(424,494)" d="m0 0 10 1 2 2 2-1-2 4-2 2h-8l3-2-6-4z" fill="#6C4B38"/>
<path transform="translate(300,487)" d="m0 0 5 1v3l3-1 3 3 3 1v2l-5 1h-3l-4-2-1-4 1-3z" fill="#322822"/>
<path transform="translate(397,489)" d="m0 0h3 2v6l1-3h2l-1 10-1-2-5-2-1-3 1-2h-2z" fill="#AA7B5F"/>
<path transform="translate(197,450)" d="m0 0 3 1v7l2 7v2l2-2-1 7-4 1-1-6v-13h-2z" fill="#595C5B"/>
<path transform="translate(391,342)" d="m0 0h5v2l5-1 4 3v2l-17-1-4-1 2-3h5z" fill="#29231F"/>
<path transform="translate(413,311)" d="m0 0 5 2 2 4 5 3v1h-16v-1h5v-3l-2-1h4l-5-2 2-1z" fill="#322D29"/>
<path transform="translate(423,669)" d="m0 0h2l2 4 3-3 3 1-1 7h-2l-1 3-1-2h-3v-2h-2l1-4z" fill="#AF8267"/>
<path transform="translate(447,627)" d="m0 0h3l1 3 1-3 3 1-1 5-2 3h-4l-3-1-1-5z" fill="#CAA88F"/>
<path transform="translate(500,593)" d="m0 0h2l-1 12-3 1-1 8-2 4-1-3 2-15 3-4z" fill="#5C554F"/>
<path transform="translate(466,459)" d="m0 0 1 3 5 1 1-2 3 3-2 4 3 1-1 2-6-4-5-1-2-5z" fill="#CBA990"/>
<path transform="translate(359,457)" d="m0 0h2l1 2h5l2 4-4 4-3 1 2-4-2-1-1-1-3 1-3-1v-2z" fill="#B69783"/>
<path transform="translate(412,321)" d="m0 0 12 1-2 3-1 3-5-1-6-1v-4z" fill="#1D1A18"/>
<path transform="translate(481,299)" d="m0 0h2l3 3 6 4-1 2h-2l-1 2-5-4-4-2-3-2 5-1z" fill="#535755"/>
<path transform="translate(428,685)" d="m0 0 5 1-2 3 1 2-2 3-5 2-2 4v-3l-3-1 1-2 3-1z" fill="#453328"/>
<path transform="translate(519,477)" d="m0 0 3 2 3-1 1 3-2 4h-3v4h-2l-1 3-1-4z" fill="#7E5944"/>
<path transform="translate(292,471)" d="m0 0h7v2l-3 1v2l2 1-1 1 2 2h-9l-1-5 1-3z" fill="#835D47"/>
<path transform="translate(314,458)" d="m0 0 11 1 2 1v2h5l1 2-5 1-8-2 1-2-2 2-5-1z" fill="#2D2620"/>
<path transform="translate(484,394)" d="m0 0h3l4 5 2 5h2v5l1 2-4-1-1-5-2 1v-2h-2l-2-8-2-1z" fill="#835D48"/>
<path transform="translate(386,287)" d="m0 0 9 1 1 6h-8l-9-3v-1h7z" fill="#33322E"/>
<path transform="translate(315,619)" d="m0 0 7 2 6 2h6v3l-14-1-6-3z" fill="#1C130E"/>
<path transform="translate(498,606)" d="m0 0h2l-1 5v7h-2l-3 9-1-3-1-6 1-2h3v-7z" fill="#5C605F"/>
<path transform="translate(305,495)" d="m0 0 10 1 4 1 1-2 1 3-6 2 1 3-9-3-3-3z" fill="#483326"/>
<path transform="translate(475,464)" d="m0 0 8 2 2 4 2 3h-7l-3-1-1-3-2-1z" fill="#C09E87"/>
<path transform="translate(430,656)" d="m0 0 2 4v6l-3 1v2l-6-1v-3-3h2v2h2l-1-4 4 1z" fill="#AC7B5F"/>
<path transform="translate(527,488)" d="m0 0h2l3 11 1 13 1 3-2 5h-2v-20l-3-8z" fill="#CBA990"/>
<path transform="translate(514,406)" d="m0 0 2 1 2 13-1-2h-3l-2 4-1-6-3 1v-3h2l1-3 1 3z" fill="#4D4A45"/>
<path transform="translate(386,337)" d="m0 0h5v2h5l3 4h-7l-2 1-7-1-1-3h3z" fill="#1C1916"/>
<path transform="translate(524,426)" d="m0 0h2v2l5 1 1-2h3l-1 6-4-1v3l-4 1-2-6z" fill="#575958"/>
<path transform="translate(450,343)" d="m0 0 5 1v2l5 2-4 1 4 4-6-1-5-5-1-3z" fill="#606462"/>
<path transform="translate(471,1176)" d="m0 0h1l3 21v7l-1 4 1 8-2-1-1-3v-21z" fill="#565957"/>
<path transform="translate(495,601)" d="m0 0h1l-1 14-2 3-1 9-5-4 1-2h2l1-7 2-3v-5z" fill="#765D4E"/>
<path transform="translate(498,434)" d="m0 0 3 1 1 5v11l-1-3h-2l-3-6 1-5 1-1z" fill="#BB9780"/>
<path transform="translate(506,720)" d="m0 0 3 1 2 3-1 5-7 5-2 3h-2v-3h2v-3l5-3z" fill="#AF8F7A"/>
<path transform="translate(431,691)" d="m0 0 1 2 5-2-1 5-9 7h-3l1-3h2v-2l2-1 1-4z" fill="#5E4333"/>
<path transform="translate(392,372)" d="m0 0 6 2 5-1 4 3-7 1h-8l-8-2z" fill="#B69986"/>
<path transform="translate(441,354)" d="m0 0h6v2l4 2 6 2 2 3h-2l-1 2-8-7-5 1z" fill="#47362C"/>
<path transform="translate(456,353)" d="m0 0h2v2l4 1 5 5v2l-3 1 2 4-2 1v-3l-5-1v-2l3-2-6-5z" fill="#453125"/>
<path transform="translate(445,678)" d="m0 0 2 4v3l-8 4v-3l-2-1v2l-2-1 3-5 2-1v3z" fill="#815B45"/>
<path transform="translate(357,436)" d="m0 0 3 3h3l1 2-2 6-3 3-2-2z" fill="#F0C2A0"/>
<path transform="translate(392,283)" d="m0 0 7 2-1 2h-6v2l-5-1-1 2h-9l-2-2h3l1-2v2h5v-2l8-1z" fill="#23201D"/>
<path transform="translate(289,476)" d="m0 0 4 1h-3v3h5v1l-12 2-4-4v-1z" fill="#684734"/>
<path transform="translate(514,414)" d="m0 0 1 4h2v2h2v2l-3-1-1 5h3v2h-2l-1 3-2-6-1 6-2-1 1-7z" fill="#463A31"/>
<path transform="translate(388,346)" d="m0 0 14 4v1l-10 1-4-1-3 1-1-4z" fill="#191715"/>
<path transform="translate(400,288)" d="m0 0 10 1 1 2 12 6 1 2-7-1v-2l-17-6z" fill="#1F1B18"/>
<path transform="translate(442,491)" d="m0 0 9 1 5 3-1 5-7-4-6-4z" fill="#51392C"/>
<path transform="translate(401,451)" d="m0 0m-4 1 6 1-1 3-3 3h-2l-2 5-1-2 1-3h-2v-6h3z" fill="#D0AD92"/>
<path transform="translate(495,392)" d="m0 0 2 1 2 8h2l3 5-1 2-3 1-3-8-1-3h-2v-2h-2l1-3 2 1z" fill="#352B24"/>
<path transform="translate(412,681)" d="m0 0 1 2 3-1v4h2l1-2 1 3-2 3-1-2-2 3h-2v-3h-2l-1 2-2 1 1-5h3z" fill="#B69580"/>
<path transform="translate(464,637)" d="m0 0 1 4-3 3h-2l-2 6-5 2-1-4 3-1 2-5 6-2z" fill="#9F7157"/>
<path transform="translate(319,460)" d="m0 0 4 1-3 1v2l8 2v1l-14 1 1-5h4z" fill="#382E27"/>
<path transform="translate(426,681)" d="m0 0 2 4-3 8-3 1v-4h-2l1-4 3-3h2z" fill="#6F4D3A"/>
<path transform="translate(286,483)" d="m0 0h5l-2 3-5 2-2 4h-2v-2l-4 2v-4z" fill="#1C130E"/>
<path transform="translate(411,928)" d="m0 0h11l3 2-5 1 2 3-12-3-2-2z" fill="#4C504E"/>
<path transform="translate(374,634)" d="m0 0 5 1 1 6h-3l-4 5-1-6z" fill="#D5B094"/>
<path transform="translate(326,630)" d="m0 0 2 3 4 4 1 4h-3l-6-4-1-6z" fill="#312822"/>
<path transform="translate(447,267)" d="m0 0 3 1v12l2 1-3 3-1-3-6-1-2-2 6-1 1 1z" fill="#565A59"/>
<path transform="translate(425,932)" d="m0 0 5 2 4 2 5 11v5l-2-4-6-9z" fill="#DBB497"/>
<path transform="translate(329,689)" d="m0 0 5 2v2h2v4l3 1 1 6h-2v-3l-3-1v-4l-5-1-2-5z" fill="#4B3325"/>
<path transform="translate(295,468)" d="m0 0h4v2l2 1-11 1 1 3-2 1h-9v-1l6-1-1-2h3v-2z" fill="#684734"/>
<path transform="translate(446,329)" d="m0 0 5 1 6 2 4 2 4 3v2l-6-2-4-1-5-3z" fill="#302B27"/>
<path transform="translate(409,330)" d="m0 0 11 5 1 5-2 1-7-1 2-2-5-5z" fill="#26231F"/>
<path transform="translate(434,936)" d="m0 0 5 5 1 9h2l1 6v9h-1l-2-11h-1l-2-10-3-5z" fill="#737775"/>
<path transform="translate(299,479)" d="m0 0h7l-1 3 13 1-1 2-19-1z" fill="#654532"/>
<path transform="translate(536,397)" d="m0 0h2v2l-2 1 1 3-1 5h-2l2 10-2 1-3-12 2-1-1-2 2-1v-5z" fill="#525554"/>
<path transform="translate(467,363)" d="m0 0h3 3v4l6 2-2 1-1 2h-4l-5-6z" fill="#473225"/>
<path transform="translate(408,325)" d="m0 0 8 1 9 5-2 2-2-1-7-1v-3l-5-1z" fill="#585C5A"/>
<path transform="translate(320,616)" d="m0 0h4l1 4 8 2v1l-6 1-6-3-6-2 2-2z" fill="#312822"/>
<path transform="translate(514,525)" d="m0 0h1v5l-3 1 1 13-3 3-1-10 2-7z" fill="#C6A187"/>
<path transform="translate(206,494)" d="m0 0h3v8h-1l-2 9-2-1 1-15z" fill="#312822"/>
<path transform="translate(444,481)" d="m0 0h9l9 2v2l-4 1-9-2-5-2z" fill="#B7957F"/>
<path transform="translate(429,462)" d="m0 0h5l-1 5-2 1-10-1v-2z" fill="#3F2F25"/>
<path transform="translate(343,448)" d="m0 0 6 2v4h2l-1-3 2-1v3h2l-1 3-7 1-1-5-2-1z" fill="#B79A86"/>
<path transform="translate(314,370)" d="m0 0 7 1-2 4-3 1-1 2h-6l3-4z" fill="#3D2D23"/>
<path transform="translate(459,332)" d="m0 0 5 2 3 2-1 4 4 2v2l-9-2v-2l-2-1v-2l4 1 2 1-5-5z" fill="#525553"/>
<path transform="translate(413,310)" d="m0 0h6l3 1 4-1 4 1-3 3-8 1-6-4z" fill="#4B4D4A"/>
<path transform="translate(98)" d="m0 0h10l-1 3-5 3h-4z" fill="#5A5E5D"/>
<path transform="translate(500,731)" d="m0 0 1 3h-2l-1 5-3 3-4 1-2 1 2-5 5-4z" fill="#C5A289"/>
<path transform="translate(419,502)" d="m0 0h13l4 1v2l-10 1-4 2-1-4-3-1z" fill="#B19684"/>
<path transform="translate(446,494)" d="m0 0 8 5-1 3h-5l-1 2-4-2v-2l3-1z" fill="#AD8167"/>
<path transform="translate(402,350)" d="m0 0 10 2 7 1-1 2 3 3-9-3-11-2-1-2z" fill="#3A2E26"/>
<path transform="translate(497,304)" d="m0 0 6 4 1 5-1 1h-6l-2-4h3v2l3-1-4-3v-2l-2-1z" fill="#535755"/>
<path transform="translate(390,297)" d="m0 0 2 1-1 3h-2v1l-7-1-10-2 4-1h10z" fill="#474845"/>
<path transform="translate(317,811)" d="m0 0h2l1 5-1 4-3 4-2-9z" fill="#B38063"/>
<path transform="translate(466,644)" d="m0 0 2 2-1 4-1 2-1-1zm-4 7 2 1-1 8h-2v2l-3-1 2-7z" fill="#8A6E5C"/>
<path transform="translate(460,644)" d="m0 0 4 2 1 5-5 3v-3l-3-1z" fill="#AA8A76"/>
<path transform="translate(480,384)" d="m0 0 1 2h4l1-2v5l2 5-5-1-1-1v-5l-5-1z" fill="#795540"/>
<path transform="translate(429,356)" d="m0 0h7l4 2 1 5h-4v-4h-2v2l-5-2-2-2z" fill="#493427"/>
<path transform="translate(424,319)" d="m0 0 7 2 4 1v2l-8 1-3-2-8-1v-2h8z" fill="#4E4F4C"/>
<path transform="translate(373,706)" d="m0 0 6 1v2h-2l-1 3-4 1-6-3v-2l5 1z" fill="#674633"/>
<path transform="translate(483,649)" d="m0 0h2v6l-5 5-1-2 1-2-4 2 2-6 4-1z" fill="#5B5E5C"/>
<path transform="translate(472,630)" d="m0 0h2v4h-2l-1 5h-2v3l-4 1 1-4 1-5h3z" fill="#C3A38B"/>
<path transform="translate(366,633)" d="m0 0 5 1v10l-2-1-2-3h-2v-6z" fill="#D9B396"/>
<path transform="translate(371,473)" d="m0 0 1 3-2 3 1 3-3 7h-1l-1-11h2l-1-4 4 1z" fill="#C2A28B"/>
<path transform="translate(506,458)" d="m0 0h2l1 10-1 10-2-2-1-15z" fill="#A58B7A"/>
<path transform="translate(310,374)" d="m0 0 4 1-3 2 3 2-10 4-5-1v-1l9-1v-2l-4-1z" fill="#5D402F"/>
<path transform="translate(461,342)" d="m0 0 7 1 4 2 2-1 3 6-5 1-3-2h2l-3-3-7-3z" fill="#2E2925"/>
<path transform="translate(431,331)" d="m0 0 6 3v2l6 2 3 4-1 2-11-8-4-4z" fill="#181613"/>
<path transform="translate(435,309)" d="m0 0 2 1v2l3 1-3 1v3h-5l-4-2 1-3h6z" fill="#3B3B38"/>
<path transform="translate(393,711)" d="m0 0h3l-2 4h-2l-2 4-1-3h-2v2h-5v-2h2v-2l4-1v2h2l1-3z" fill="#362B24"/>
<path transform="translate(366,710)" d="m0 0 8 2v2l-9 2-2 1-2-1 2-4h3z" fill="#412E23"/>
<path transform="translate(212,577)" d="m0 0 3 3v2h2v2h5l-4 3 2 3-4-2-5-5z" fill="#352F2A"/>
<path transform="translate(294,488)" d="m0 0h5l-4 4h-2l1 4-1 2-5 1 1-4-1-2 6-3z" fill="#3A2C23"/>
<path transform="translate(387,322)" d="m0 0 11 1 2 1v2h2v2l-7-1v-1h-8z" fill="#4F5251"/>
<path transform="translate(705,887)" d="m0 0 3 1 1 12-2 2-2-6-1-6z" fill="#3F4341"/>
<path transform="translate(402,691)" d="m0 0h1v6h-2l-2 4h-2v-3l-3-1v-5l2 3 4-3 1 1z" fill="#AE8F7B"/>
<path transform="translate(452,650)" d="m0 0 5 1-3 3h-3l-2 1-2-1-1 3-1-2 4-4zm1 4m-1 1 2 1v5h-2l-2-5z" fill="#B48A71"/>
<path transform="translate(401,504)" d="m0 0h2v2h2l2 3 8 3 2 2h-7v-2l-6-2-4-5z" fill="#C1A18B"/>
<path transform="translate(339,485)" d="m0 0 2 1v2h2v3l3 1 1 4-1 2h-3l-4-11z" fill="#171512"/>
<path transform="translate(442,482)" d="m0 0 7 1 6 3 6 4v2l-5-1v-2l-6-2-8-4z" fill="#7F5A44"/>
<path transform="translate(473,385)" d="m0 0 7 1 2 1 2 9-2 1-3-5-1-4-2-1-1 4v-3h-2z" fill="#B38165"/>
<path transform="translate(364,284)" d="m0 0h2v2h6l1 4-1 2h-4l-2-3-5-1 3-3z" fill="#272421"/>
<path transform="translate(418,709)" d="m0 0 2 1-1 2-3 1-1 3-5 3-7 2 1-3 9-5z" fill="#6F4F3C"/>
<path transform="translate(404,693)" d="m0 0h1v5l-4 7-4-1v-3h2l2-5h2z" fill="#836654"/>
<path transform="translate(414,692)" d="m0 0 3 1 1 3-4 1-2 6h-1l-2-9z" fill="#815D49"/>
<path transform="translate(469,663)" d="m0 0 4 2 1 3-4 3-2-4-1 4-2-1 2-6z" fill="#704F3B"/>
<path transform="translate(458,611)" d="m0 0 3 1 3-1v2l-3 3 4-2 1 3h-4l1 4-2 3-3-10z" fill="#CDAB91"/>
<path transform="translate(418,612)" d="m0 0h5l3 3v4l-7 1 3-1v-3l-4-2v2l-2-1z" fill="#825C46"/>
<path transform="translate(342,572)" d="m0 0 4 1v6l-5 1-1-6z" fill="#412E23"/>
<path transform="translate(288,482)" d="m0 0h6v2l8 1v1l-9 2-5-1 2-3z" fill="#312822"/>
<path transform="translate(194,430)" d="m0 0 2 2 1 10 1 5 3 1-3 2-2-1-2-9z" fill="#545756"/>
<path transform="translate(386,311)" d="m0 0 5 1v2l2 1-1 1h-6l-2-1-8-1-1-2h11z" fill="#3E3C38"/>
<path transform="translate(482,1257)" d="m0 0h1l2 18v5h-2l-2-14z" fill="#717675"/>
<path transform="translate(468,653)" d="m0 0 3 1 1 6h-2v3h-2v-3l-3 1 1-6h2z" fill="#827266"/>
<path transform="translate(323,500)" d="m0 0 5 1-2 4-8 1-1-4z" fill="#AC846C"/>
<path transform="translate(429,481)" d="m0 0h8l-2 2 4 3h-8l-5-1v-2z" fill="#B5927B"/>
<path transform="translate(309,453)" d="m0 0 11 1v3h-13l-1-3z" fill="#302721"/>
<path transform="translate(195,398)" d="m0 0 2 1-1 4 1 3-2 5 3 1-2 5-2-2v-7l1-3h-2z" fill="#595D5B"/>
<path transform="translate(447,357)" d="m0 0 1 3h-2l-2 4h-3l-1 4h-1v-5h2l-1-3 1-2h5z" fill="#634432"/>
<path transform="translate(430,620)" d="m0 0 2 1-4 4v-2l-6 2-8-3v-1h15z" fill="#C3A38C"/>
<path transform="translate(306,621)" d="m0 0h4l1 6-4 2v-2h-3l1-5z" fill="#B38063"/>
<path transform="translate(484,598)" d="m0 0 2 2v7l-3 11-1-4 1-11h2l-2-4z" fill="#BD9F89"/>
<path transform="translate(300,378)" d="m0 0h8v2l-12 3-4-1 2-2z" fill="#2A1F19"/>
<path transform="translate(447,324)" d="m0 0h5v2h-4l10 5-1 2-6-2-9-4 3-2z" fill="#585B59"/>
<path transform="translate(355,307)" d="m0 0h7l15 3v1h-9l-11-2z" fill="#494C4A"/>
<path transform="translate(363,277)" d="m0 0h7l-4 1v3h2v2h-9v-3h4z" fill="#312C28"/>
<path transform="translate(389,704)" d="m0 0h1l2 6v3l-4 2-4-2 1-2h2z" fill="#583E2F"/>
<path transform="translate(323,680)" d="m0 0 4 1-1 4 2 1v4l-4-2-3-3z" fill="#4E3527"/>
<path transform="translate(439,669)" d="m0 0 2 2-1 1 2 10-3 2v-3l-2 3 1-14z" fill="#9E8879"/>
<path transform="translate(450,663)" d="m0 0 4 1 1 4-6 5-2-2 2-5z" fill="#BA9983"/>
<path transform="translate(331,489)" d="m0 0 6 1 2 2-1 5-5-2z" fill="#2C241F"/>
<path transform="translate(465,466)" d="m0 0h5l8 6-1 2-7-3-5-2z" fill="#866E5E"/>
<path transform="translate(434,464)" d="m0 0 3 1-1 1 4 2 6 1v1l-8 1-6-2z" fill="#674735"/>
<path transform="translate(400,461)" d="m0 0 4 1v1 3l-4 2-5-1 3-5z" fill="#AB7E64"/>
<path transform="translate(454,356)" d="m0 0 4 1h3v3l2 1-4 2-3-3-5-1v-2z" fill="#5D483A"/>
<path transform="translate(327,691)" d="m0 0h2l1 4 5 1-1 5-4-2v-3l-3 1-1-3z" fill="#352A23"/>
<path transform="translate(423,458)" d="m0 0 9 1 1 3-10 3-3-1 2-2 4-2-3-1z" fill="#646562"/>
<path transform="translate(303,455)" d="m0 0 1 2 2 1-7 2h-11v-1h5l1-3 9 1z" fill="#1D130E"/>
<path transform="translate(389,325)" d="m0 0h10l-2 4-8 1-1-3z" fill="#1D1C1A"/>
<path transform="translate(400,683)" d="m0 0h2v5l-1 1v5l-3 1-2 2-1-3 3-6z" fill="#CCAA90"/>
<path transform="translate(338,628)" d="m0 0h6l-3 3-4 1 3 1-1 3-5-2v-5z" fill="#684734"/>
<path transform="translate(483,624)" d="m0 0m-2 1 2 1 3 1-2 4-5 3-2-2v-3h2v2h2l-1-4z" fill="#AB8168"/>
<path transform="translate(504,513)" d="m0 0h1l1 9 1 4-2 13h-1z" fill="#C9A88F"/>
<path transform="translate(416,467)" d="m0 0h4v2l4-2h7l1 2-9 1h-10l3-1z" fill="#835D47"/>
<path transform="translate(519,414)" d="m0 0 2 2 1 3 1-3 1 5h2l2 4-3-1-2 2-3-4z" fill="#50504D"/>
<path transform="translate(427,298)" d="m0 0 7 1 6 5v2l-6-2-4-2z" fill="#575957"/>
<path transform="translate(394,289)" d="m0 0 9 1 5 5-3 1-1-2-6-1-3-1z" fill="#5C5F5E"/>
<path transform="translate(433,683)" d="m0 0 2 1v2l2 1v-2l3 1-1 3-7 1h-2l2-5z" fill="#6A4936"/>
<path transform="translate(473,659)" d="m0 0 4 3-1 5-5-1-1-6z" fill="#4E4740"/>
<path transform="translate(477,632)" d="m0 0 2 2-4 10-2-4-1-1v-5h2l1 3z" fill="#969089"/>
<path transform="translate(489,631)" d="m0 0 1 3v7l-4 4h-1v-5h2v-8z" fill="#454440"/>
<path transform="translate(395,625)" d="m0 0 2 1-3 3-6 2-1 2h2v3h-2v-2h-2l-1-4 6-1v-2z" fill="#C6A58D"/>
<path transform="translate(481,616)" d="m0 0h3v5h-2l1 4h-2l-1 2-2-2v-3h2z" fill="#B79985"/>
<path transform="translate(505,507)" d="m0 0 3 2-1 15-2-2z" fill="#AF8B74"/>
<path transform="translate(214,496)" d="m0 0 2 2 1 8h-6v-4l3-1z" fill="#1E130E"/>
<path transform="translate(505,462)" d="m0 0h1l1 18-2 7h-1z" fill="#CAA88F"/>
<path transform="translate(476,378)" d="m0 0 3 4v2l-5 2-4-2v-2h3l1-3z" fill="#855F49"/>
<path transform="translate(391,356)" d="m0 0 1 2-2 1v2h-4l-2 2-4-2 1-3z" fill="#4B3326"/>
<path transform="translate(395,351)" d="m0 0h5l1 1 7 1v3l-10-1-3-2z" fill="#45403A"/>
<path transform="translate(406,292)" d="m0 0 6 2v3l-3 1 2 2h-4v-2l-4 1 4-4z" fill="#494A47"/>
<path transform="translate(349,704)" d="m0 0h5l2 7h-3l-1-2h-3z" fill="#835D47"/>
<path transform="translate(388,573)" d="m0 0h12l-2 3h-12l2-1z" fill="#BA9177"/>
<path transform="translate(517,482)" d="m0 0h1v13l-3-1-1-6z" fill="#6E4C38"/>
<path transform="translate(415,454)" d="m0 0h7l-2 2 2 2-9 1-1-3h3z" fill="#846B5B"/>
<path transform="translate(279,389)" d="m0 0h2v3h-3l-1 5-4 2 1-4 3-5z" fill="#312822"/>
<path transform="translate(352,363)" d="m0 0 3 1 2 2v-2l3 1h-2v2l-14 1v-2z" fill="#684734"/>
<path transform="translate(446,361)" d="m0 0h2v4h-3v2l-4 3h-2l2-6z" fill="#865F49"/>
<path transform="translate(458,353)" d="m0 0 5 1v2l4 1 3 5-1 3-8-9-3-1z" fill="#52524F"/>
<path transform="translate(367,284)" d="m0 0 6 1 5 1-1 5h-4l-1-5h-6z" fill="#383531"/>
<path transform="translate(461,679)" d="m0 0 1 2h-2l-1 3-7 2-1 3-1-3 1-2 5-1v-2z" fill="#B18970"/>
<path transform="translate(310,676)" d="m0 0 2 4 2 1v3h3v4l3 1-3 1-2-4-6-5z" fill="#1E130E"/>
<path transform="translate(434,664)" d="m0 0h3 2l1 5-2 4h-2l-2-5z" fill="#B7927B"/>
<path transform="translate(477,647)" d="m0 0 1 4-4 6h-3v-4h3l1-4h2z" fill="#615F5B"/>
<path transform="translate(486,625)" d="m0 0h2l1 7h-2v3l-3 1v-2l1-1-3-1 3-3z" fill="#795B49"/>
<path transform="translate(398,615)" d="m0 0 13 3v1h-9l-3 1-2-2z" fill="#B99883"/>
<path transform="translate(419,576)" d="m0 0 7 3 4 1 1-4 1 5-6 1-5-1v-2l-4-1z" fill="#B69986"/>
<path transform="translate(507,491)" d="m0 0 2 2v11h-2l-1-5v-7z" fill="#83604B"/>
<path transform="translate(371,466)" d="m0 0h2l4 5h-6l-1 2h-4v-2l3-3h2z" fill="#C1A28B"/>
<path transform="translate(363,355)" d="m0 0 7 1 6 2v1l-16-1 3-1z" fill="#322822"/>
<path transform="translate(388,299)" d="m0 0 4 1h14v2h-10l-4 1-4-2z" fill="#33322F"/>
<path transform="translate(377,728)" d="m0 0h4v2l-6 3v-2l-4 1-2-2 1-1z" fill="#825E48"/>
<path transform="translate(324,688)" d="m0 0 4 3-2 3h-3l-1 2-1-6z" fill="#2F2621"/>
<path transform="translate(496,600)" d="m0 0 3 1v4h-2v11l-2 2-1-3z" fill="#58493E"/>
<path transform="translate(509,464)" d="m0 0 2 4v9l-3 1v-10z" fill="#835D47"/>
<path transform="translate(480,376)" d="m0 0 3 1v3h2v2l2 2h-2v2h-2l-4-7z" fill="#4B3325"/>
<path transform="translate(434,371)" d="m0 0 3 1 1 3-8 3-4-4 4-1 4 1z" fill="#B69986"/>
<path transform="translate(456,342)" d="m0 0 9 3 2 1v2h-3l-1 2-4-4v-2l-3-1z" fill="#2A241F"/>
<path transform="translate(424,330)" d="m0 0h2l3 6-3 1-7-4 3-2h2z" fill="#464643"/>
<path transform="translate(414,318)" d="m0 0h8l3 3h-16v-1h5z" fill="#373532"/>
<path transform="translate(416,306)" d="m0 0 11 3 1 2h-5l-2 2v-2l-5-2z" fill="#36322E"/>
<path transform="translate(499,737)" d="m0 0v3l-4 3 2-4zm-6 6 2 1 1 2-5 3-3-1 3-1z" fill="#39281E"/>
<path transform="translate(388,702)" d="m0 0 2 2-3 6-5-1 2-4 4-1z" fill="#7C5742"/>
<path transform="translate(460,674)" d="m0 0 3 1-5 6-4 1 2-6z" fill="#533829"/>
<path transform="translate(390,591)" d="m0 0 5 1v6h-2v-3h-2v3h-2l-1-6z" fill="#B5927D"/>
<path transform="translate(329,562)" d="m0 0 1 4-2 3 1 4 3 4-5-2-2-2 1-5z" fill="#3A2C23"/>
<path transform="translate(456,495)" d="m0 0 7 2-1 3h-5l-1 2-1-3z" fill="#B38063"/>
<path transform="translate(424,494)" d="m0 0 10 1 1 2-3 1h-7l-2-3z" fill="#5D3F2E"/>
<path transform="translate(414,489)" d="m0 0h3 1l1 7-6-2v-4z" fill="#B0917D"/>
<path transform="translate(332,481)" d="m0 0h5l1 4 2 4-5-2v-2l-3-1z" fill="#5D4030"/>
<path transform="translate(437,464)" d="m0 0h9v2l-5 2-6-1z" fill="#77665A"/>
<path transform="translate(415,452)" d="m0 0 8 1 6 3v1l-10-1v-1l-6-1z" fill="#A79283"/>
<path transform="translate(511,437)" d="m0 0 5 4-2 5-2-2-2 3v-9z" fill="#616564"/>
<path transform="translate(496,390)" d="m0 0 5 4 1 6v3l-1-2h-2l-3-8z" fill="#4A4946"/>
<path transform="translate(275,386)" d="m0 0 2 1-2 3-9 1v-3z" fill="#1E130E"/>
<path transform="translate(357,358)" d="m0 0h12l2 2-4 3v-2l-10-2z" fill="#4A4843"/>
<path transform="translate(467,347)" d="m0 0 6 3 3 2h-7l-4-4zm10 1h3v2h-3z" fill="#181614"/>
<path transform="translate(469,338)" d="m0 0h3l4 7-5 1-2-2z" fill="#3C3E3B"/>
<path transform="translate(489,308)" d="m0 0 4 1 6 5-3 1-7-4z" fill="#727776"/>
<path transform="translate(511,728)" d="m0 0 1 4-4 1-1 3h-5l2-4 4-2h3z" fill="#342820"/>
<path transform="translate(408,708)" d="m0 0 1 3-2 4-3 1-2-4 1-2z" fill="#171412"/>
<path transform="translate(352,708)" d="m0 0 1 3 5-1-2 4h-4-2l-1-5z" fill="#634433"/>
<path transform="translate(410,702)" d="m0 0h3l-1 8-5 5-1-3 3-2z" fill="#4A433C"/>
<path transform="translate(475,656)" d="m0 0h3 2l-1 7-2 1v-2l-3-1z" fill="#4F4F4C"/>
<path transform="translate(275,639)" d="m0 0 3 1-1 7-5-3 2-4z" fill="#1E130E"/>
<path transform="translate(454,632)" d="m0 0v3l-5 5-2-2-3-2 4-1 2-2v3h2z" fill="#B38D76"/>
<path transform="translate(462,629)" d="m0 0h2v4h-2v2h-2l-2 5-2-3 4-6h2z" fill="#BA9C87"/>
<path transform="translate(485,607)" d="m0 0h1l1 7-2 7h-1v-9zm-3 14 2 1-2 2z" fill="#B38063"/>
<path transform="translate(474,609)" d="m0 0h2v2h2l1 6-1 3-3-1z" fill="#B79A86"/>
<path transform="translate(482,603)" d="m0 0 2 2-1 9-1 2h-2l-1-4z" fill="#B38266"/>
<path transform="translate(498,606)" d="m0 0h2l-1 5v7l-3-4v-5z" fill="#646867"/>
<path transform="translate(501,574)" d="m0 0 3 3v3h-2v8l-2-2v-7z" fill="#604230"/>
<path transform="translate(522,488)" d="m0 0 3 1-4 9-2 1 1-7z" fill="#CDAB91"/>
<path transform="translate(435,482)" d="m0 0 8 1v3l-7-1-4-2z" fill="#ECBF9E"/>
<path transform="translate(529,476)" d="m0 0h2l3 3-1 2-6 2v-5h2z" fill="#C0A18B"/>
<path transform="translate(322,453)" d="m0 0h4l1 2h2l-1 3h-6-3z" fill="#3E2E25"/>
<path transform="translate(520,432)" d="m0 0 2 1v7l-2 2-2-1v-8z" fill="#3C3631"/>
<path transform="translate(433,342)" d="m0 0h5l1 3 7 4-1 2-9-5-1-3z" fill="#666A69"/>
<path transform="translate(450,343)" d="m0 0 5 1v2l5 2-2 1-6-2-4-2z" fill="#5C5F5D"/>
<path transform="translate(429,324)" d="m0 0 6 2 5 3-4 1-5-2h-2l-1-3z" fill="#1D1A17"/>
<path transform="translate(505,317)" d="m0 0 1 2 3 1 2 5-2 1-5-4z" fill="#5D6160"/>
<path transform="translate(400,319)" d="m0 0h5l-2 1 5 2 1 2-3 1-7-3z" fill="#302823"/>
<path transform="translate(423,662)" d="m0 0h2v2l4 1v4l-6-1v-3z" fill="#AE8066"/>
<path transform="translate(359,624)" d="m0 0h5v5l-6-1z" fill="#D1AD92"/>
<path transform="translate(400,614)" d="m0 0 13 1 1 2-5 1-9-2z" fill="#CEAB91"/>
<path transform="translate(507,504)" d="m0 0h3l1 8h-3l-2-5z" fill="#7D5842"/>
<path transform="translate(444,493)" d="m0 0 3 3-1 3 3 1-4 1-2-1-1 3h-3v-2l5-3 1-3-2-1z" fill="#BFA08A"/>
<path transform="translate(460,476)" d="m0 0 7 1-2 3-9-1v-2z" fill="#C4A38B"/>
<path transform="translate(511,469)" d="m0 0 3 1-2 9-3 1v-3h2l-1-5z" fill="#676968"/>
<path transform="translate(435,460)" d="m0 0 11 1 2 3-8-1-5-2z" fill="#84786E"/>
<path transform="translate(415,461)" d="m0 0h4v2l5-1-4 2v2l-4-1-2-1z" fill="#3D2C23"/>
<path transform="translate(407,455)" d="m0 0h5l-2 2-11 5 1-5 5-1z" fill="#BF9C84"/>
<path transform="translate(288,384)" d="m0 0 3 1-7 4h-3l-1-3 1-1z" fill="#312822"/>
<path transform="translate(391,342)" d="m0 0h5l-2 3-9 2-1-2 2-2h5z" fill="#35322E"/>
<path transform="translate(413,299)" d="m0 0 3 4-2 2-7-3v-2z" fill="#2B2622"/>
<path transform="translate(442,638)" d="m0 0h5v4h-2l-1 4-1-2 1-3-4 1z" fill="#B48A71"/>
<path transform="translate(354,624)" d="m0 0h5l-1 4h-7l-1-3z" fill="#A19388"/>
<path transform="translate(496,579)" d="m0 0 2 2v5l-1 2-1 4-1-2v-10z" fill="#AD7D62"/>
<path transform="translate(352,573)" d="m0 0 4 1v2l-5 2-4-2v-2z" fill="#131312"/>
<path transform="translate(311,479)" d="m0 0h12v2h-9l-1 2-4-1z" fill="#B18166"/>
<path transform="translate(304,464)" d="m0 0h3v2h5v1l-16 1 2-2h6z" fill="#3C2C23"/>
<path transform="translate(407,459)" d="m0 0 1 3-2 4-5 2 2-3-2-1z" fill="#74513D"/>
<path transform="translate(486,386)" d="m0 0h2l4 4-1 4-4-2-2-4z" fill="#4A3427"/>
<path transform="translate(451,352)" d="m0 0 5 3-2 1-1 2-4-1-1-3z" fill="#4C4B48"/>
<path transform="translate(449,348)" d="m0 0 4 2 4 4h-3l-6-2z" fill="#27231F"/>
<path transform="translate(477,346)" d="m0 0 6 2 1 4 3 1-7-1-2-2h2v-2l-3-1z" fill="#38332F"/>
<path transform="translate(398,338)" d="m0 0 11 1v1l-5 1h-10z" fill="#4A4845"/>
<path transform="translate(430,305)" d="m0 0h2v2l6-2v3l-3 3h-2v-3l-3-1z" fill="#302A25"/>
<path transform="translate(421,299)" d="m0 0 5 1 10 5-4 2v-2l-5-2-5-1z" fill="#4E504D"/>
<path transform="translate(410,290)" d="m0 0 6 1 6 3 3 3-5-1-10-5z" fill="#474A47"/>
</svg>
